<svg width="14" height="14" viewBox="0 0 14 14" fill="none" xmlns="http://www.w3.org/2000/svg">
<path d="M12.3404 3.9025L5.01953 4.9175M12.3404 3.9025V1.3125L5.01953 2.3275V4.9175M12.3404 3.9025V8.90458M5.01953 4.9175V11.0075" stroke="white" stroke-linecap="round" stroke-linejoin="round"/>
<path d="M3.34016 12.6881C4.26799 12.6881 5.02016 11.936 5.02016 11.0081C5.02016 10.0803 4.26799 9.32812 3.34016 9.32812C2.41232 9.32812 1.66016 10.0803 1.66016 11.0081C1.66016 11.936 2.41232 12.6881 3.34016 12.6881Z" stroke="white" stroke-linecap="round" stroke-linejoin="round"/>
<path d="M10.6605 10.5846C11.5883 10.5846 12.3405 9.83245 12.3405 8.90461C12.3405 7.97677 11.5883 7.22461 10.6605 7.22461C9.73263 7.22461 8.98047 7.97677 8.98047 8.90461C8.98047 9.83245 9.73263 10.5846 10.6605 10.5846Z" stroke="white" stroke-linecap="round" stroke-linejoin="round"/>
</svg>
