<svg width="14" height="14" viewBox="0 0 14 14" fill="none" xmlns="http://www.w3.org/2000/svg">
<path d="M1.43555 12.3302C1.43914 12.5385 1.49976 12.7419 1.61083 12.9182C1.7219 13.0945 1.87917 13.237 2.06555 13.3302C2.25165 13.4353 2.46179 13.4906 2.67555 13.4906C2.88931 13.4906 3.09944 13.4353 3.28555 13.3302L11.9355 7.98018C12.1238 7.88951 12.2826 7.74756 12.3937 7.57066C12.5048 7.39377 12.5638 7.18909 12.5638 6.98018C12.5638 6.77127 12.5048 6.5666 12.3937 6.3897C12.2826 6.2128 12.1238 6.07086 11.9355 5.98018L3.28555 0.670182C3.09944 0.565026 2.88931 0.509766 2.67555 0.509766C2.46179 0.509766 2.25165 0.565026 2.06555 0.670182C1.87917 0.763371 1.7219 0.90586 1.61083 1.08216C1.49976 1.25847 1.43914 1.46184 1.43555 1.67018V12.3302Z" stroke="white" stroke-linecap="round" stroke-linejoin="round"/>
</svg>
