<svg width="12" height="11" viewBox="0 0 12 11" fill="none" xmlns="http://www.w3.org/2000/svg">
<path d="M10.375 2.17188H8.80055L8.02344 1.00539C7.99342 0.960404 7.95275 0.923533 7.90505 0.898058C7.85734 0.872583 7.80408 0.859295 7.75 0.859375H4.25C4.19592 0.859295 4.14266 0.872583 4.09495 0.898058C4.04725 0.923533 4.00658 0.960404 3.97656 1.00539L3.19891 2.17188H1.625C1.30591 2.17188 0.999892 2.29863 0.774262 2.52426C0.548632 2.74989 0.421875 3.05591 0.421875 3.375V9.5C0.421875 9.81909 0.548632 10.1251 0.774262 10.3507C0.999892 10.5764 1.30591 10.7031 1.625 10.7031H10.375C10.6941 10.7031 11.0001 10.5764 11.2257 10.3507C11.4514 10.1251 11.5781 9.81909 11.5781 9.5V3.375C11.5781 3.05591 11.4514 2.74989 11.2257 2.52426C11.0001 2.29863 10.6941 2.17188 10.375 2.17188ZM10.9219 9.5C10.9219 9.64504 10.8643 9.78414 10.7617 9.8867C10.6591 9.98926 10.52 10.0469 10.375 10.0469H1.625C1.47996 10.0469 1.34086 9.98926 1.2383 9.8867C1.13574 9.78414 1.07812 9.64504 1.07812 9.5V3.375C1.07812 3.22996 1.13574 3.09086 1.2383 2.9883C1.34086 2.88574 1.47996 2.82813 1.625 2.82813H3.375C3.42908 2.82821 3.48234 2.81492 3.53005 2.78944C3.57775 2.76397 3.61842 2.7271 3.64844 2.68211L4.42555 1.51563H7.57391L8.35156 2.68211C8.38158 2.7271 8.42225 2.76397 8.46995 2.78944C8.51766 2.81492 8.57092 2.82821 8.625 2.82813H10.375C10.52 2.82813 10.6591 2.88574 10.7617 2.9883C10.8643 3.09086 10.9219 3.22996 10.9219 3.375V9.5ZM6 3.92188C5.54572 3.92188 5.10164 4.05658 4.72392 4.30897C4.34621 4.56135 4.05181 4.92008 3.87796 5.33977C3.70412 5.75947 3.65863 6.2213 3.74726 6.66685C3.83588 7.1124 4.05464 7.52166 4.37586 7.84289C4.69709 8.16411 5.10635 8.38287 5.5519 8.47149C5.99745 8.56012 6.45928 8.51463 6.87898 8.34079C7.29868 8.16694 7.6574 7.87255 7.90978 7.49483C8.16217 7.11711 8.29688 6.67303 8.29688 6.21875C8.29688 5.60958 8.05488 5.02536 7.62414 4.59461C7.19339 4.16387 6.60917 3.92188 6 3.92188ZM6 7.85938C5.67552 7.85938 5.35832 7.76315 5.08852 7.58288C4.81872 7.40261 4.60844 7.14638 4.48426 6.84659C4.36009 6.54681 4.3276 6.21693 4.3909 5.89868C4.4542 5.58043 4.61046 5.2881 4.8399 5.05865C5.06935 4.82921 5.36168 4.67295 5.67993 4.60965C5.99818 4.54635 6.32805 4.57884 6.62784 4.70301C6.92762 4.82719 7.18386 5.03747 7.36413 5.30727C7.5444 5.57707 7.64062 5.89427 7.64062 6.21875C7.64062 6.65387 7.46777 7.07117 7.1601 7.37885C6.85242 7.68652 6.43512 7.85938 6 7.85938Z" fill="white"/>
</svg>
