<svg width="13" height="13" viewBox="0 0 13 13" fill="none" xmlns="http://www.w3.org/2000/svg">
<path d="M6.5 9.875C6.94321 9.875 7.38208 9.7877 7.79156 9.61809C8.20103 9.44848 8.57309 9.19988 8.88649 8.88649C9.19988 8.57309 9.44848 8.20103 9.61809 7.79156C9.7877 7.38208 9.875 6.94321 9.875 6.5C9.875 6.05679 9.7877 5.61792 9.61809 5.20844C9.44848 4.79897 9.19988 4.42691 8.88649 4.11351C8.57309 3.80012 8.20103 3.55152 7.79156 3.38191C7.38208 3.2123 6.94321 3.125 6.5 3.125C5.60489 3.125 4.74645 3.48058 4.11351 4.11351C3.48058 4.74645 3.125 5.60489 3.125 6.5C3.125 7.39511 3.48058 8.25355 4.11351 8.88649C4.74645 9.51942 5.60489 9.875 6.5 9.875ZM6.5 0.5C4.9087 0.5 3.38258 1.13214 2.25736 2.25736C1.13214 3.38258 0.5 4.9087 0.5 6.5C0.5 8.0913 1.13214 9.61742 2.25736 10.7426C3.38258 11.8679 4.9087 12.5 6.5 12.5C8.0913 12.5 9.61742 11.8679 10.7426 10.7426C11.8679 9.61742 12.5 8.0913 12.5 6.5C12.5 4.9087 11.8679 3.38258 10.7426 2.25736C9.61742 1.13214 8.0913 0.5 6.5 0.5ZM1.25 6.5C1.25 5.81056 1.3858 5.12787 1.64963 4.49091C1.91347 3.85395 2.30018 3.2752 2.78769 2.78769C3.2752 2.30018 3.85395 1.91347 4.49091 1.64963C5.12787 1.3858 5.81056 1.25 6.5 1.25C7.18944 1.25 7.87213 1.3858 8.50909 1.64963C9.14605 1.91347 9.7248 2.30018 10.2123 2.78769C10.6998 3.2752 11.0865 3.85395 11.3504 4.49091C11.6142 5.12787 11.75 5.81056 11.75 6.5C11.75 7.89239 11.1969 9.22774 10.2123 10.2123C9.22774 11.1969 7.89239 11.75 6.5 11.75C5.10761 11.75 3.77226 11.1969 2.78769 10.2123C1.80312 9.22774 1.25 7.89239 1.25 6.5Z" fill="white"/>
</svg>
