<svg width="16" height="13" viewBox="0 0 16 13" fill="none" xmlns="http://www.w3.org/2000/svg">
<path d="M13.6963 12.1099C13.9069 12.2519 14.1857 12.1951 14.3506 11.9619C15.3914 10.4717 16 8.5548 16 6.52423C16 4.49366 15.3857 2.57137 14.3506 1.08109C14.1857 0.847943 13.9069 0.791086 13.6963 0.9388C13.4803 1.0868 13.446 1.37109 13.6111 1.61023C14.5269 2.95794 15.0957 4.68737 15.0957 6.52451C15.0957 8.36166 14.544 10.1134 13.6111 11.4388C13.446 11.6719 13.4803 11.9562 13.6963 12.1099ZM6.49 11.7174C6.87657 11.7174 7.15543 11.4331 7.15543 11.0517V1.97994C7.15543 1.5988 6.87657 1.28051 6.47829 1.28051C6.19971 1.28051 6.01771 1.4168 5.71057 1.68994L3.03743 4.06166C2.99866 4.09693 2.9475 4.11542 2.89514 4.11309H1.20571C0.398286 4.11309 0 4.5168 0 5.37594V7.63937C0 8.49823 0.398286 8.90223 1.20571 8.90223H2.89514C2.952 8.90223 3.00314 8.91937 3.03743 8.95337L5.71057 11.3479C5.98943 11.5982 6.21114 11.7177 6.49 11.7177M11.4043 10.5574C11.626 10.7051 11.8991 10.6482 12.0583 10.4208C12.8091 9.37423 13.2469 7.9808 13.2469 6.52451C13.2469 5.0628 12.8149 3.66937 12.0583 2.6228C11.8934 2.4008 11.626 2.34394 11.404 2.49194C11.188 2.63994 11.154 2.91851 11.3246 3.16337C11.9446 4.07309 12.3314 5.26766 12.3314 6.52451C12.3314 7.78166 11.956 8.98737 11.3246 9.88623C11.1597 10.1308 11.188 10.4094 11.4043 10.5574ZM6.16 10.5174C6.13143 10.5174 6.09714 10.5002 6.06314 10.4662L3.54343 8.1968C3.40714 8.07166 3.29343 8.04337 3.13971 8.04337H1.24543C1.02371 8.04337 0.915714 7.9408 0.915714 7.71337V5.30194C0.915714 5.07994 1.02371 4.97194 1.24571 4.97194H3.13971C3.29314 4.97194 3.40143 4.94909 3.54343 4.81823L6.06343 2.53166C6.09171 2.5088 6.12571 2.48623 6.16 2.48623C6.21114 2.48623 6.23971 2.52051 6.23971 2.56594V10.4317C6.23971 10.4831 6.21114 10.5168 6.15971 10.5168M9.13457 9.02109C9.32771 9.15766 9.60657 9.11194 9.77172 8.89023C10.2151 8.29309 10.4823 7.41709 10.4823 6.52394C10.4823 5.63109 10.2094 4.76109 9.77143 4.15223C9.60657 3.93051 9.33343 3.8848 9.13429 4.02137C8.88429 4.18623 8.85571 4.47651 9.03771 4.7268C9.36771 5.17023 9.56657 5.84709 9.56657 6.52394C9.56657 7.20109 9.35629 7.87766 9.03229 8.32709C8.86143 8.57166 8.88971 8.85051 9.13429 9.02109" fill="white"/>
</svg>
