<svg width="30" height="10" viewBox="0 0 30 10" fill="none" xmlns="http://www.w3.org/2000/svg">
<path d="M1.23987 4.97766C2.80399 3.41354 4.79936 2.20147 7.22597 1.34145C9.65259 0.481435 12.279 0.0545176 15.1054 0.0607047C17.9317 0.0668919 20.555 0.4969 22.9754 1.35073C25.3959 2.20456 27.3881 3.41354 28.9523 4.97766C29.2356 5.26103 29.3789 5.58988 29.382 5.96421C29.3851 6.33853 29.248 6.66552 28.9708 6.94518L26.6757 9.24032C26.4233 9.49276 26.1235 9.63352 25.7764 9.6626C25.4293 9.69168 25.0983 9.61495 24.7833 9.43243L22.1105 7.68022C21.8073 7.46367 21.5883 7.22918 21.4534 6.97674C21.3185 6.7243 21.2628 6.46259 21.2863 6.19159L21.4237 2.25654C20.3515 1.94656 19.2882 1.72537 18.2339 1.59296C17.1796 1.46056 16.1256 1.39033 15.0719 1.38229C13.9954 1.38229 12.9145 1.46086 11.8292 1.61802C10.7446 1.77579 9.62536 2.02019 8.47145 2.3512L8.50672 6.35678C8.51847 6.67047 8.45599 6.94766 8.31925 7.18834C8.18251 7.42778 7.98421 7.6465 7.72435 7.84449L5.37353 9.39716C5.05922 9.58773 4.72728 9.66538 4.3777 9.63011C4.02812 9.59485 3.72928 9.45316 3.48118 9.20505L1.22131 6.94518C0.942886 6.66676 0.805531 6.34008 0.809242 5.96513C0.812954 5.59019 0.957116 5.26041 1.23987 4.97766ZM22.7304 2.69088L22.5866 6.11084C22.5754 6.21726 22.6027 6.32121 22.6683 6.42268C22.7332 6.52476 22.8137 6.59901 22.9096 6.64542L25.2882 8.2018C25.407 8.27234 25.5199 8.30172 25.627 8.28997C25.734 8.27821 25.8349 8.225 25.9295 8.13034L27.8339 6.22592C27.9051 6.15477 27.9407 6.07155 27.9407 5.97627C27.9407 5.88099 27.9051 5.79777 27.8339 5.72662C27.1818 5.11038 26.4205 4.54765 25.5499 4.03845C24.6794 3.52924 23.7402 3.07943 22.7304 2.69088ZM7.15265 2.79946C6.21468 3.11625 5.31661 3.55461 4.45844 4.11455C3.59966 4.67634 2.90144 5.21556 2.36377 5.73219C2.29262 5.80334 2.25705 5.88656 2.25705 5.98184C2.25705 6.07712 2.29231 6.16003 2.36285 6.23057L4.22642 8.09414C4.32109 8.18881 4.42225 8.24233 4.52991 8.2547C4.63694 8.26646 4.74955 8.23676 4.86773 8.16561L6.93641 6.8004C7.03231 6.75276 7.09821 6.69306 7.13409 6.62128C7.16874 6.54951 7.18637 6.45454 7.18699 6.33637L7.15265 2.79946Z" fill="white"/>
</svg>
