<svg width="13" height="19" viewBox="0 0 13 19" fill="none" xmlns="http://www.w3.org/2000/svg">
<path d="M6.5 13C7.53401 12.9989 8.52537 12.5877 9.25653 11.8565C9.98769 11.1254 10.3989 10.134 10.4 9.1V3.9C10.4 2.86566 9.98911 1.87368 9.25772 1.14228C8.52632 0.410892 7.53434 0 6.5 0C5.46566 0 4.47368 0.410892 3.74228 1.14228C3.01089 1.87368 2.6 2.86566 2.6 3.9V9.1C2.60108 10.134 3.01231 11.1254 3.74347 11.8565C4.47463 12.5877 5.46599 12.9989 6.5 13ZM3.9 3.9C3.9 3.21044 4.17393 2.54912 4.66152 2.06152C5.14912 1.57393 5.81044 1.3 6.5 1.3C7.18956 1.3 7.85088 1.57393 8.33848 2.06152C8.82607 2.54912 9.1 3.21044 9.1 3.9V9.1C9.1 9.78956 8.82607 10.4509 8.33848 10.9385C7.85088 11.4261 7.18956 11.7 6.5 11.7C5.81044 11.7 5.14912 11.4261 4.66152 10.9385C4.17393 10.4509 3.9 9.78956 3.9 9.1V3.9ZM7.15 15.5675V18.2C7.15 18.3724 7.08152 18.5377 6.95962 18.6596C6.83772 18.7815 6.67239 18.85 6.5 18.85C6.32761 18.85 6.16228 18.7815 6.04038 18.6596C5.91848 18.5377 5.85 18.3724 5.85 18.2V15.5675C4.24746 15.4044 2.76231 14.6529 1.68175 13.4583C0.601186 12.2637 0.00197934 10.7108 0 9.1C0 8.92761 0.0684821 8.76228 0.190381 8.64038C0.312279 8.51848 0.477609 8.45 0.65 8.45C0.822391 8.45 0.987721 8.51848 1.10962 8.64038C1.23152 8.76228 1.3 8.92761 1.3 9.1C1.3 10.4791 1.84786 11.8018 2.82304 12.777C3.79823 13.7521 5.12087 14.3 6.5 14.3C7.87913 14.3 9.20177 13.7521 10.177 12.777C11.1521 11.8018 11.7 10.4791 11.7 9.1C11.7 8.92761 11.7685 8.76228 11.8904 8.64038C12.0123 8.51848 12.1776 8.45 12.35 8.45C12.5224 8.45 12.6877 8.51848 12.8096 8.64038C12.9315 8.76228 13 8.92761 13 9.1C12.998 10.7108 12.3988 12.2637 11.3183 13.4583C10.2377 14.6529 8.75254 15.4044 7.15 15.5675Z" fill="white"/>
</svg>
