<svg width="20" height="4" viewBox="0 0 20 4" fill="none" xmlns="http://www.w3.org/2000/svg">
<path fill-rule="evenodd" clip-rule="evenodd" d="M4.00121 1.99996C4.00121 2.26261 3.94947 2.52269 3.84893 2.76534C3.74839 3.008 3.60103 3.22848 3.41526 3.4142C3.22948 3.59993 3.00894 3.74725 2.76621 3.84776C2.52348 3.94827 2.26333 4 2.00061 4C1.73789 4 1.47774 3.94827 1.23501 3.84777C0.992287 3.74726 0.771742 3.59994 0.585968 3.41422C0.400195 3.2285 0.252831 3.00802 0.15229 2.76537C0.0517492 2.52272 9.66678e-07 2.26264 0 2C2.82385e-06 1.46957 0.210778 0.960861 0.585959 0.58579C0.961139 0.210718 1.46999 3.33786e-06 2.00058 0C2.53117 -1.09673e-05 3.04003 0.210692 3.41522 0.585757C3.79041 0.960822 4.0012 1.46953 4.00121 1.99996Z" fill="white"/>
<path fill-rule="evenodd" clip-rule="evenodd" d="M12.0032 1.99996C12.0032 2.26261 11.9514 2.52269 11.8509 2.76534C11.7503 3.008 11.603 3.22848 11.4172 3.4142C11.2314 3.59993 11.0109 3.74725 10.7682 3.84776C10.5254 3.94827 10.2653 4 10.0026 4C9.73984 4 9.47969 3.94827 9.23696 3.84777C8.99424 3.74726 8.77369 3.59994 8.58792 3.41422C8.40215 3.2285 8.25478 3.00802 8.15424 2.76537C8.0537 2.52272 8.00195 2.26264 8.00195 2C8.00196 1.46957 8.21273 0.960861 8.58791 0.58579C8.96309 0.210718 9.47194 3.33786e-06 10.0025 0C10.5331 -1.09673e-05 11.042 0.210692 11.4172 0.585757C11.7924 0.960822 12.0031 1.46953 12.0032 1.99996Z" fill="white"/>
<path fill-rule="evenodd" clip-rule="evenodd" d="M20.0032 1.99996C20.0032 2.26261 19.9514 2.52269 19.8509 2.76534C19.7503 3.008 19.603 3.22848 19.4172 3.41421C19.2314 3.59993 19.0109 3.74725 18.7682 3.84776C18.5254 3.94827 18.2653 4 18.0026 4C17.7398 4 17.4797 3.94827 17.237 3.84777C16.9942 3.74726 16.7737 3.59994 16.5879 3.41422C16.4021 3.2285 16.2548 3.00802 16.1542 2.76537C16.0537 2.52272 16.002 2.26264 16.002 2C16.002 1.46957 16.2127 0.960863 16.5879 0.585791C16.9631 0.210719 17.4719 3.8147e-06 18.0025 0C18.5331 -1.19209e-05 19.042 0.210692 19.4172 0.585757C19.7924 0.960822 20.0031 1.46953 20.0032 1.99996Z" fill="white"/>
</svg>
