<svg width="26" height="18" viewBox="0 0 26 18" fill="none" xmlns="http://www.w3.org/2000/svg">
<path d="M1 13.6667V3.66667C1 2.95942 1.28095 2.28115 1.78105 1.78105C2.28115 1.28095 2.95942 1 3.66667 1H15C15.7072 1 16.3855 1.28095 16.8856 1.78105C17.3857 2.28115 17.6667 2.95942 17.6667 3.66667V13.6667C17.6667 14.3739 17.3857 15.0522 16.8856 15.5523C16.3855 16.0524 15.7072 16.3333 15 16.3333H3.66667C2.95942 16.3333 2.28115 16.0524 1.78105 15.5523C1.28095 15.0522 1 14.3739 1 13.6667ZM23.8907 1.988L18.5573 6.73867C18.487 6.80109 18.4307 6.87766 18.3921 6.96338C18.3535 7.04909 18.3335 7.142 18.3333 7.236V9.60667C18.3335 9.70067 18.3535 9.79358 18.3921 9.87929C18.4307 9.965 18.487 10.0416 18.5573 10.104L23.8907 14.8547C23.9868 14.94 24.1055 14.9957 24.2325 15.0152C24.3595 15.0346 24.4895 15.0169 24.6067 14.9642C24.7239 14.9115 24.8234 14.8261 24.8931 14.7182C24.9629 14.6103 25 14.4845 25 14.356V2.48667C25 2.35816 24.9629 2.23238 24.8931 2.12447C24.8234 2.01656 24.7239 1.93112 24.6067 1.87843C24.4895 1.82574 24.3595 1.80805 24.2325 1.82749C24.1055 1.84693 23.9868 1.90267 23.8907 1.988Z" stroke="#C6C1C1" stroke-width="1.5" stroke-linecap="round" stroke-linejoin="round"/>
</svg>
