<svg width="4" height="16" viewBox="0 0 4 16" fill="none" xmlns="http://www.w3.org/2000/svg">
<path fill-rule="evenodd" clip-rule="evenodd" d="M1.67972 3.40716C1.48273 3.40716 1.28767 3.36835 1.10568 3.29295C0.923687 3.21754 0.758325 3.10702 0.619034 2.96769C0.479743 2.82836 0.369252 2.66295 0.293868 2.48091C0.218485 2.29886 0.179686 2.10375 0.179688 1.90671C0.179686 1.70966 0.218482 1.51455 0.293864 1.33251C0.369245 1.15047 0.479734 0.985057 0.619022 0.845726C0.75831 0.706396 0.923669 0.595873 1.10566 0.520467C1.28765 0.445062 1.4827 0.406251 1.67969 0.40625C2.07751 0.406252 2.45904 0.564334 2.74035 0.845719C3.02165 1.1271 3.17969 1.50874 3.17969 1.90668C3.1797 2.30462 3.02167 2.68627 2.74037 2.96766C2.45907 3.24906 2.07754 3.40715 1.67972 3.40716Z" fill="white"/>
<path fill-rule="evenodd" clip-rule="evenodd" d="M1.67972 9.43255C1.48273 9.43255 1.28767 9.39374 1.10568 9.31834C0.923687 9.24293 0.758325 9.13241 0.619034 8.99308C0.479743 8.85375 0.369252 8.68834 0.293868 8.5063C0.218485 8.32425 0.179686 8.12914 0.179688 7.9321C0.179686 7.73505 0.218482 7.53994 0.293864 7.3579C0.369245 7.17586 0.479734 7.01045 0.619022 6.87112C0.75831 6.73179 0.923669 6.62126 1.10566 6.54586C1.28765 6.47045 1.4827 6.43164 1.67969 6.43164C2.07751 6.43164 2.45904 6.58972 2.74035 6.87111C3.02165 7.15249 3.17969 7.53413 3.17969 7.93207C3.1797 8.33001 3.02167 8.71166 2.74037 8.99305C2.45907 9.27445 2.07754 9.43254 1.67972 9.43255Z" fill="white"/>
<path fill-rule="evenodd" clip-rule="evenodd" d="M1.67972 15.4579C1.48273 15.4579 1.28767 15.4191 1.10568 15.3437C0.923687 15.2683 0.758325 15.1578 0.619033 15.0185C0.479742 14.8791 0.369252 14.7137 0.293868 14.5317C0.218485 14.3496 0.179686 14.1545 0.179688 13.9575C0.179686 13.7604 0.218482 13.5653 0.293864 13.3833C0.369245 13.2012 0.479734 13.0358 0.619022 12.8965C0.75831 12.7572 0.923669 12.6467 1.10566 12.5712C1.28765 12.4958 1.4827 12.457 1.67969 12.457C2.07751 12.457 2.45904 12.6151 2.74034 12.8965C3.02165 13.1779 3.17968 13.5595 3.17969 13.9575C3.1797 14.3554 3.02167 14.7371 2.74037 15.0184C2.45907 15.2998 2.07754 15.4579 1.67972 15.4579Z" fill="white"/>
</svg>
