<svg width="24" height="16" viewBox="0 0 24 16" fill="none" xmlns="http://www.w3.org/2000/svg">
<path d="M1.5 12.3743V3.62435C1.5 3.00551 1.74583 2.41202 2.18342 1.97443C2.621 1.53685 3.21449 1.29102 3.83333 1.29102H13.75C14.3688 1.29102 14.9623 1.53685 15.3999 1.97443C15.8375 2.41202 16.0833 3.00551 16.0833 3.62435V12.3743C16.0833 12.9932 15.8375 13.5867 15.3999 14.0243C14.9623 14.4619 14.3688 14.7077 13.75 14.7077H3.83333C3.21449 14.7077 2.621 14.4619 2.18342 14.0243C1.74583 13.5867 1.5 12.9932 1.5 12.3743ZM21.5293 2.15552L16.8627 6.31235C16.8012 6.36697 16.7519 6.43397 16.7181 6.50897C16.6843 6.58397 16.6668 6.66526 16.6667 6.74752V8.82185C16.6668 8.9041 16.6843 8.9854 16.7181 9.0604C16.7519 9.13539 16.8012 9.2024 16.8627 9.25702L21.5293 13.4139C21.6134 13.4885 21.7173 13.5373 21.8284 13.5543C21.9396 13.5713 22.0533 13.5558 22.1558 13.5097C22.2584 13.4636 22.3454 13.3889 22.4065 13.2944C22.4676 13.2 22.5 13.09 22.5 12.9775V2.59185C22.5 2.4794 22.4676 2.36935 22.4065 2.27493C22.3454 2.18051 22.2584 2.10575 22.1558 2.05964C22.0533 2.01354 21.9396 1.99806 21.8284 2.01507C21.7173 2.03208 21.6134 2.08085 21.5293 2.15552Z" stroke="white" stroke-width="1.5" stroke-linecap="round" stroke-linejoin="round"/>
</svg>
