<svg width="17" height="15" viewBox="0 0 17 15" fill="none" xmlns="http://www.w3.org/2000/svg">
<path d="M9.16667 8.33333C10.0507 8.33333 10.8986 8.68452 11.5237 9.30964C12.1488 9.93476 12.5 10.7826 12.5 11.6667V12.9167C12.5 13.2482 12.3683 13.5661 12.1339 13.8005C11.8995 14.035 11.5815 14.1667 11.25 14.1667H1.25C0.918479 14.1667 0.600537 14.035 0.366117 13.8005C0.131696 13.5661 0 13.2482 0 12.9167V11.6667C0 10.7826 0.35119 9.93476 0.976311 9.30964C1.60143 8.68452 2.44928 8.33333 3.33333 8.33333H9.16667ZM14.1667 8.33333C14.8297 8.33333 15.4656 8.59672 15.9344 9.06557C16.4033 9.53441 16.6667 10.1703 16.6667 10.8333V12.0833C16.6667 12.4149 16.535 12.7328 16.3005 12.9672C16.0661 13.2016 15.7482 13.3333 15.4167 13.3333H14.1667V11.6667C14.1672 11.0197 14.0168 10.3816 13.7275 9.80292C13.4382 9.22428 13.0179 8.72109 12.5 8.33333H14.1667ZM6.25 0C7.24456 0 8.19839 0.395088 8.90165 1.09835C9.60491 1.80161 10 2.75544 10 3.75C10 4.74456 9.60491 5.69839 8.90165 6.40165C8.19839 7.10491 7.24456 7.5 6.25 7.5C5.25544 7.5 4.30161 7.10491 3.59835 6.40165C2.89509 5.69839 2.5 4.74456 2.5 3.75C2.5 2.75544 2.89509 1.80161 3.59835 1.09835C4.30161 0.395088 5.25544 0 6.25 0ZM13.3333 2.5C13.9964 2.5 14.6323 2.76339 15.1011 3.23223C15.5699 3.70107 15.8333 4.33696 15.8333 5C15.8333 5.66304 15.5699 6.29893 15.1011 6.76777C14.6323 7.23661 13.9964 7.5 13.3333 7.5C12.6703 7.5 12.0344 7.23661 11.5656 6.76777C11.0967 6.29893 10.8333 5.66304 10.8333 5C10.8333 4.33696 11.0967 3.70107 11.5656 3.23223C12.0344 2.76339 12.6703 2.5 13.3333 2.5Z" fill="#C6C1C1"/>
</svg>
