<svg width="15" height="15" viewBox="0 0 15 15" fill="none" xmlns="http://www.w3.org/2000/svg">
<path d="M10.2584 1.56053L2.0942 9.72563L1.99475 9.83443C1.83658 10.0228 1.72116 10.2432 1.65645 10.4804L0.716345 13.9272L0.703595 13.9952C0.696411 14.064 0.706127 14.1335 0.731901 14.1977C0.757675 14.2619 0.798728 14.3188 0.851494 14.3635C0.904261 14.4082 0.967148 14.4394 1.03469 14.4543C1.10224 14.4692 1.1724 14.4674 1.2391 14.4491L4.685 13.509L4.82525 13.4639C5.0556 13.3789 5.26555 13.2455 5.4398 13.0712L13.6049 4.90613L13.7154 4.78713C14.1177 4.32463 14.3247 3.72404 14.2929 3.1119C14.2611 2.49976 13.9929 1.92387 13.5448 1.50557C13.0968 1.08727 12.5038 0.85922 11.891 0.869472C11.2781 0.879724 10.6931 1.12748 10.2593 1.56053M2.6943 10.3266L9.52745 3.49428L11.6703 5.63713L4.838 12.4694L4.7547 12.5425L4.66375 12.6037C4.6 12.6407 4.53171 12.6693 4.4606 12.6887L1.7304 13.4333L2.47585 10.704L2.51155 10.5994C2.55415 10.4975 2.61622 10.4048 2.6943 10.3266ZM13.0031 2.16148L13.0966 2.26348C13.593 2.85848 13.5615 3.74588 13.0031 4.30518L12.2712 5.03618L10.1284 2.89333L10.8594 2.16233L10.9614 2.06883C11.252 1.82688 11.6226 1.70233 12.0004 1.71963C12.3781 1.73693 12.7358 1.89483 13.0031 2.16233M8.901 1.71608H1.1252C1.01248 1.71608 0.904378 1.76085 0.824675 1.84056C0.744972 1.92026 0.700195 2.02836 0.700195 2.14108C0.700195 2.25379 0.744972 2.36189 0.824675 2.4416C0.904378 2.5213 1.01248 2.56608 1.1252 2.56608H8.051L8.901 1.71608ZM6.351 4.26608H1.1252C1.01248 4.26608 0.904378 4.31085 0.824675 4.39056C0.744972 4.47026 0.700195 4.57836 0.700195 4.69108C0.700195 4.80379 0.744972 4.91189 0.824675 4.9916C0.904378 5.0713 1.01248 5.11608 1.1252 5.11608H5.501L6.351 4.26608ZM2.951 7.66608L3.801 6.81608H1.1252C1.01248 6.81608 0.904378 6.86085 0.824675 6.94056C0.744972 7.02026 0.700195 7.12836 0.700195 7.24108C0.700195 7.35379 0.744972 7.46189 0.824675 7.5416C0.904378 7.6213 1.01248 7.66608 1.1252 7.66608H2.951Z" fill="white"/>
</svg>
