<svg width="16" height="12" viewBox="0 0 16 12" fill="none" xmlns="http://www.w3.org/2000/svg">
<path d="M0.163574 11.679V10.3065C0.163574 9.91984 0.263574 9.58735 0.463574 9.30901C0.66413 9.03123 0.933574 8.80901 1.27191 8.64234C1.99469 8.2979 2.71246 8.02346 3.42524 7.81901C4.13746 7.61457 4.99469 7.51234 5.99691 7.51234C6.99913 7.51234 7.85663 7.61457 8.56941 7.81901C9.28218 8.02346 9.99996 8.2979 10.7227 8.64234C11.0605 8.80901 11.3297 9.03123 11.5302 9.30901C11.7302 9.58735 11.8302 9.91984 11.8302 10.3065V11.679H0.163574ZM13.4969 11.679V10.2682C13.4969 9.78484 13.3991 9.32901 13.2036 8.90068C13.0086 8.47179 12.7314 8.10401 12.3719 7.79734C12.7814 7.88068 13.1758 7.99623 13.5552 8.14401C13.9341 8.29234 14.3091 8.45873 14.6802 8.64318C15.0414 8.82484 15.3244 9.05734 15.5294 9.34068C15.7344 9.62401 15.8369 9.93318 15.8369 10.2682V11.679H13.4969ZM5.99691 5.65318C5.30969 5.65318 4.72135 5.40818 4.23191 4.91818C3.74246 4.42818 3.49746 3.83957 3.49691 3.15234C3.49635 2.46512 3.74135 1.87679 4.23191 1.38734C4.72246 0.8979 5.3108 0.6529 5.99691 0.652345C6.68302 0.651789 7.27163 0.896789 7.76274 1.38734C8.25385 1.8779 8.49857 2.46623 8.49691 3.15234C8.49524 3.83846 8.25052 4.42734 7.76274 4.91901C7.27496 5.41068 6.68635 5.65512 5.99691 5.65234M12.0552 3.15234C12.0552 3.84012 11.8102 4.42901 11.3202 4.91901C10.8302 5.40901 10.2419 5.65346 9.55524 5.65234C9.51969 5.65234 9.47469 5.64846 9.42024 5.64068C9.3658 5.6329 9.3208 5.62401 9.28524 5.61401C9.56802 5.26846 9.78496 4.88512 9.93607 4.46401C10.0877 4.04234 10.1636 3.60457 10.1636 3.15068C10.1636 2.69679 10.0844 2.26346 9.92607 1.85068C9.76774 1.4379 9.55413 1.05151 9.28524 0.691512C9.33024 0.675401 9.37524 0.664845 9.42024 0.659845C9.46524 0.654845 9.51024 0.652345 9.55524 0.652345C10.2425 0.652345 10.8308 0.897345 11.3202 1.38734C11.8097 1.87734 12.0547 2.46568 12.0552 3.15234ZM0.996908 10.8457H10.9969V10.3065C10.9969 10.111 10.948 9.94012 10.8502 9.79401C10.7525 9.6479 10.5769 9.5079 10.3236 9.37401C9.70191 9.04179 9.04635 8.78734 8.35691 8.61068C7.66746 8.43401 6.8808 8.34568 5.99691 8.34568C5.11302 8.34568 4.32607 8.43401 3.63607 8.61068C2.94719 8.78734 2.29163 9.04179 1.66941 9.37401C1.41663 9.50735 1.24135 9.64734 1.14357 9.79401C1.0458 9.94012 0.996908 10.111 0.996908 10.3065V10.8457ZM5.99691 4.81984C6.45524 4.81984 6.84774 4.65651 7.17441 4.32984C7.50107 4.00318 7.66413 3.61068 7.66357 3.15234C7.66302 2.69401 7.49996 2.30179 7.17441 1.97568C6.84885 1.64957 6.45635 1.48623 5.99691 1.48568C5.53746 1.48512 5.14524 1.64846 4.82024 1.97568C4.49524 2.3029 4.33191 2.69512 4.33024 3.15234C4.32857 3.60957 4.49191 4.00207 4.82024 4.32984C5.14857 4.65762 5.5408 4.82068 5.99691 4.81901" fill="white"/>
</svg>
