<svg width="20" height="20" viewBox="0 0 20 20" fill="none" xmlns="http://www.w3.org/2000/svg">
<path d="M14.5835 10.8325C14.5856 12.0733 14.2165 13.2864 13.5238 14.3159C12.9525 15.1679 12.1801 15.8661 11.2748 16.3486C10.3696 16.8312 9.35934 17.0832 8.3335 17.0825C7.30766 17.0832 6.29744 16.8312 5.39218 16.3486C4.48692 15.8661 3.7145 15.1679 3.14322 14.3159C2.59928 13.505 2.25287 12.5781 2.13176 11.6092C2.01066 10.6404 2.11822 9.65667 2.44582 8.7369C2.77343 7.81713 3.31197 6.98691 4.01827 6.31278C4.72457 5.63866 5.57898 5.13939 6.51301 4.85499C7.44705 4.5706 8.43472 4.50899 9.39686 4.67511C10.359 4.84123 11.2688 5.23045 12.0534 5.81158C12.838 6.3927 13.4756 7.14957 13.9149 8.0215C14.3543 8.89342 14.5833 9.85616 14.5835 10.8325Z" stroke="white" stroke-width="0.833333"/>
<path d="M9.37499 8.74978C9.37499 9.02605 9.26524 9.291 9.06989 9.48635C8.87454 9.6817 8.60959 9.79145 8.33332 9.79145V10.4859C8.56131 10.4859 8.78707 10.441 8.9977 10.3537C9.20834 10.2665 9.39972 10.1386 9.56094 9.9774C9.72215 9.81619 9.85003 9.6248 9.93728 9.41416C10.0245 9.20353 10.0694 8.97777 10.0694 8.74978H9.37499ZM8.33332 9.79145C8.05705 9.79145 7.7921 9.6817 7.59675 9.48635C7.4014 9.291 7.29166 9.02605 7.29166 8.74978H6.59721C6.59721 8.97777 6.64212 9.20353 6.72936 9.41416C6.81661 9.6248 6.94449 9.81619 7.10571 9.9774C7.43129 10.303 7.87288 10.4859 8.33332 10.4859V9.79145ZM7.29166 8.74978C7.29166 8.47352 7.4014 8.20856 7.59675 8.01321C7.7921 7.81786 8.05705 7.70812 8.33332 7.70812V7.01367C7.87288 7.01367 7.43129 7.19658 7.10571 7.52217C6.78012 7.84775 6.59721 8.28934 6.59721 8.74978H7.29166ZM8.33332 7.70812C8.60959 7.70812 8.87454 7.81786 9.06989 8.01321C9.26524 8.20856 9.37499 8.47352 9.37499 8.74978H10.0694C10.0694 8.28934 9.88652 7.84775 9.56094 7.52217C9.23535 7.19658 8.79377 7.01367 8.33332 7.01367V7.70812ZM3.58749 14.8998L3.25416 14.8012L3.20068 14.9824L3.3236 15.1262L3.58749 14.8998ZM13.0792 14.8998L13.343 15.1262L13.466 14.9824L13.4118 14.8012L13.0792 14.8998ZM6.24999 13.2637H10.4167V12.5692H6.24999V13.2637ZM6.24999 12.5692C5.57703 12.5694 4.92207 12.7866 4.38245 13.1887C3.84284 13.5908 3.44669 14.1563 3.25416 14.8012L3.92013 14.9991C4.07003 14.4976 4.37771 14.0579 4.79745 13.7453C5.21719 13.4326 5.7266 13.2637 6.24999 13.2637V12.5692ZM8.33332 16.7359C7.48142 16.7368 6.63947 16.5529 5.86556 16.1968C5.09165 15.8407 4.40422 15.321 3.85068 14.6734L3.3236 15.1262C3.94239 15.8496 4.71071 16.4302 5.57559 16.828C6.44048 17.2258 7.38134 17.4313 8.33332 17.4303V16.7359ZM10.4167 13.2637C10.9401 13.2638 11.4496 13.4328 11.8694 13.7455C12.2891 14.0583 12.5967 14.4982 12.7465 14.9998L13.4118 14.8012C13.2193 14.1563 12.8238 13.5908 12.2842 13.1887C11.7446 12.7866 11.0896 12.5694 10.4167 12.5692V13.2637ZM12.816 14.6734C12.2624 15.321 11.575 15.8407 10.8011 16.1968C10.0272 16.5529 9.18522 16.7368 8.33332 16.7359V17.4303C9.2853 17.4313 10.2262 17.2258 11.0911 16.828C11.9559 16.4302 12.7243 15.8496 13.343 15.1262L12.816 14.6734Z" fill="white"/>
<path d="M16.25 0C16.5942 0 16.925 0.0439453 17.2424 0.131836C17.5598 0.219727 17.8589 0.34668 18.1396 0.512695C18.4204 0.678711 18.6731 0.874023 18.8977 1.09863C19.1223 1.32324 19.3188 1.57715 19.4873 1.86035C19.6558 2.14355 19.7815 2.44141 19.8645 2.75391C19.9475 3.06641 19.9927 3.39844 20 3.75C20 4.09424 19.9561 4.42505 19.8682 4.74243C19.7803 5.05981 19.6533 5.35889 19.4873 5.63965C19.3213 5.92041 19.126 6.1731 18.9014 6.3977C18.6768 6.62231 18.4229 6.81885 18.1396 6.9873C17.8564 7.15576 17.5586 7.28149 17.2461 7.3645C16.9336 7.44751 16.6016 7.49268 16.25 7.5C15.9058 7.5 15.575 7.45605 15.2576 7.36816C14.9402 7.28027 14.6411 7.15332 14.3604 6.9873C14.0796 6.82129 13.8269 6.62598 13.6023 6.40137C13.3777 6.17676 13.1812 5.92285 13.0127 5.63965C12.8442 5.35644 12.7185 5.05859 12.6355 4.74609C12.5525 4.43359 12.5073 4.10156 12.5 3.75C12.5 3.40576 12.5439 3.07495 12.6318 2.75757C12.7197 2.44019 12.8467 2.14111 13.0127 1.86035C13.1787 1.57959 13.374 1.3269 13.5986 1.10229C13.8232 0.877685 14.0771 0.681152 14.3604 0.512695C14.6436 0.344238 14.9414 0.218506 15.2539 0.135498C15.5664 0.0524902 15.8984 0.00732422 16.25 0ZM16.25 7.03125C16.6504 7.03125 17.0325 6.96289 17.3962 6.82617C17.76 6.68945 18.0945 6.49048 18.3997 6.22925L13.7708 1.60034C13.5095 1.90308 13.3105 2.23633 13.1738 2.6001C13.0371 2.96387 12.9688 3.34717 12.9688 3.75C12.9688 4.05273 13.0078 4.34326 13.0859 4.62158C13.1641 4.8999 13.2739 5.16113 13.4155 5.40527C13.5571 5.64941 13.728 5.87036 13.9282 6.06811C14.1284 6.26587 14.3494 6.43677 14.5911 6.58081C14.8328 6.72485 15.094 6.83594 15.3748 6.91406C15.6555 6.99219 15.9473 7.03125 16.25 7.03125ZM18.7292 5.89966C18.9905 5.59692 19.1895 5.26367 19.3262 4.8999C19.4629 4.53613 19.5312 4.15283 19.5312 3.75C19.5312 3.44727 19.4922 3.15674 19.4141 2.87842C19.3359 2.6001 19.2261 2.33887 19.0845 2.09473C18.9429 1.85059 18.772 1.62964 18.5718 1.43188C18.3716 1.23413 18.1506 1.06323 17.9089 0.919189C17.6672 0.775146 17.406 0.664062 17.1252 0.585937C16.8445 0.507812 16.5527 0.46875 16.25 0.46875C15.8496 0.46875 15.4675 0.537109 15.1038 0.673828C14.74 0.810547 14.4055 1.00952 14.1003 1.27075L18.7292 5.89966Z" fill="white"/>
</svg>
