<svg width="16" height="16" viewBox="0 0 16 16" fill="none" xmlns="http://www.w3.org/2000/svg">
<path d="M3.41667 10.2504H9.25V9.41708H3.41667V10.2504ZM3.41667 7.75042H12.5833V6.91708H3.41667V7.75042ZM3.41667 5.25042H11.7017V5.23125C11.4978 5.13125 11.3203 5.01514 11.1692 4.88292C11.0181 4.75069 10.8806 4.59542 10.7567 4.41708H3.41667V5.25042ZM0.5 15.7312V2.84708C0.5 2.46319 0.628611 2.14292 0.885833 1.88625C1.14306 1.62958 1.46306 1.50097 1.84583 1.50042H10.1667C10.1328 1.63931 10.1131 1.77542 10.1075 1.90875C10.1019 2.04208 10.1003 2.18375 10.1025 2.33375H1.84667C1.71833 2.33375 1.60056 2.38708 1.49333 2.49375C1.38611 2.60042 1.33278 2.71792 1.33333 2.84625V13.7046L2.70833 12.3337H14.1542C14.2819 12.3337 14.3994 12.2804 14.5067 12.1737C14.6139 12.0671 14.6672 11.9496 14.6667 11.8212V5.95208C14.8261 5.91486 14.9725 5.87181 15.1058 5.82292C15.2392 5.77458 15.3706 5.71208 15.5 5.63542V11.8212C15.5 12.2046 15.3717 12.5249 15.115 12.7821C14.8583 13.0393 14.5381 13.1676 14.1542 13.1671H3.06417L0.5 15.7312ZM1.33333 2.84708V13.4879V2.33375V2.84708ZM13.8333 4.38542C13.2567 4.38542 12.765 4.18236 12.3583 3.77625C11.9517 3.37014 11.7489 2.87847 11.75 2.30125C11.7511 1.72403 11.9539 1.23264 12.3583 0.827083C12.7628 0.421528 13.2544 0.21875 13.8333 0.21875C14.4122 0.21875 14.9039 0.421528 15.3083 0.827083C15.7128 1.23264 15.9156 1.72431 15.9167 2.30208C15.9178 2.87986 15.715 3.37125 15.3083 3.77625C14.9017 4.18125 14.41 4.38486 13.8333 4.38542Z" fill="white"/>
</svg>
