<svg width="14" height="8" viewBox="0 0 14 8" fill="none" xmlns="http://www.w3.org/2000/svg">
<path d="M1.5987 3.99935C1.5987 2.85935 2.52536 1.93268 3.66536 1.93268H6.33203V0.666016H3.66536C2.78131 0.666016 1.93346 1.01721 1.30834 1.64233C0.683221 2.26745 0.332031 3.11529 0.332031 3.99935C0.332031 4.8834 0.683221 5.73125 1.30834 6.35637C1.93346 6.98149 2.78131 7.33268 3.66536 7.33268H6.33203V6.06602H3.66536C2.52536 6.06602 1.5987 5.13935 1.5987 3.99935ZM4.33203 4.66602H9.66536V3.33268H4.33203V4.66602ZM10.332 0.666016H7.66536V1.93268H10.332C11.472 1.93268 12.3987 2.85935 12.3987 3.99935C12.3987 5.13935 11.472 6.06602 10.332 6.06602H7.66536V7.33268H10.332C11.2161 7.33268 12.0639 6.98149 12.6891 6.35637C13.3142 5.73125 13.6654 4.8834 13.6654 3.99935C13.6654 3.11529 13.3142 2.26745 12.6891 1.64233C12.0639 1.01721 11.2161 0.666016 10.332 0.666016Z" fill="white"/>
</svg>
