<svg width="14" height="14" viewBox="0 0 14 14" fill="none" xmlns="http://www.w3.org/2000/svg">
<path d="M11.707 2.29448C11.0015 1.58838 10.0775 1.14218 9.08584 1.02865C8.09414 0.915132 7.09324 1.14099 6.2464 1.66939C5.39956 2.19779 4.75675 2.99755 4.42282 3.93821C4.08889 4.87887 4.08356 5.90492 4.40769 6.849L1.23209 10.0246C1.15835 10.0981 1.09988 10.1854 1.06005 10.2816C1.02022 10.3778 0.999808 10.4809 1 10.585V12.209C1 12.4192 1.0835 12.6208 1.23211 12.7694C1.38073 12.918 1.58231 13.0015 1.79249 13.0015H3.60388C3.69396 13.0015 3.78034 12.9657 3.84404 12.902C3.90773 12.8383 3.94352 12.752 3.94352 12.6619V11.643H4.96242C5.0525 11.643 5.13889 11.6072 5.20258 11.5435C5.26628 11.4798 5.30206 11.3934 5.30206 11.3033V10.2844H6.32097C6.41102 10.2843 6.49735 10.2485 6.56098 10.1848L7.15251 9.59383C7.61358 9.75204 8.09776 9.83238 8.58521 9.83158H8.59087C9.46358 9.83036 10.3163 9.57055 11.0415 9.08496C11.7666 8.59937 12.3316 7.90977 12.665 7.10328C12.9985 6.29678 13.0854 5.40956 12.9149 4.55368C12.7444 3.69779 12.3241 2.91163 11.707 2.29448ZM12.3212 5.53858C12.2578 7.52884 10.5851 9.15004 8.592 9.15231C8.11692 9.1533 7.64602 9.06358 7.20459 8.88796C7.14203 8.86071 7.0727 8.85294 7.00566 8.86566C6.93862 8.87838 6.87696 8.91101 6.82873 8.95928L6.18002 9.60515H4.96242C4.87235 9.60515 4.78596 9.64094 4.72227 9.70463C4.65857 9.76832 4.62279 9.85471 4.62279 9.94479V10.9637H3.60388C3.5138 10.9637 3.42741 10.9995 3.36372 11.0632C3.30003 11.1269 3.26424 11.2133 3.26424 11.3033V12.3222H1.79249C1.76246 12.3222 1.73366 12.3103 1.71243 12.2891C1.6912 12.2679 1.67927 12.2391 1.67927 12.209V10.585C1.67925 10.5551 1.69105 10.5264 1.71211 10.5052L5.04224 7.17506C5.09051 7.12682 5.12313 7.06517 5.13586 6.99812C5.14858 6.93108 5.14081 6.86176 5.11356 6.79919C4.93751 6.35789 4.84777 5.8869 4.84921 5.41178C4.84921 3.41868 6.47267 1.74597 8.46238 1.68031C8.9737 1.6632 9.48308 1.7513 9.95895 1.93913C10.4348 2.12697 10.8671 2.41054 11.2288 2.77227C11.5906 3.13401 11.8743 3.56619 12.0622 4.04204C12.2501 4.51788 12.3382 5.02725 12.3212 5.53858ZM10.2834 4.28419C10.2834 4.39614 10.2502 4.50558 10.188 4.59867C10.1258 4.69176 10.0374 4.76431 9.93395 4.80716C9.83052 4.85 9.71671 4.86121 9.6069 4.83937C9.4971 4.81753 9.39623 4.76362 9.31707 4.68445C9.2379 4.60529 9.18399 4.50442 9.16215 4.39462C9.14031 4.28481 9.15152 4.171 9.19436 4.06756C9.2372 3.96413 9.30976 3.87572 9.40285 3.81352C9.49593 3.75132 9.60538 3.71812 9.71733 3.71812C9.86746 3.71812 10.0114 3.77776 10.1176 3.88392C10.2238 3.99008 10.2834 4.13406 10.2834 4.28419Z" fill="white" stroke="white" stroke-width="0.1"/>
</svg>
