<svg width="12" height="12" viewBox="0 0 12 12" fill="none" xmlns="http://www.w3.org/2000/svg">
<path d="M6.00039 0.400391C6.84607 0.400879 7.68065 0.592894 8.44151 0.962027C9.20238 1.33116 9.86976 1.86782 10.3936 2.53174C10.9174 3.19566 11.284 3.96959 11.466 4.79546C11.6479 5.62133 11.6405 6.47769 11.4442 7.30027C11.2479 8.12285 10.8678 8.89029 10.3326 9.54499C9.79728 10.1997 9.12067 10.7247 8.3535 11.0805C7.58633 11.4364 6.74853 11.6138 5.90297 11.5996C5.05741 11.5854 4.22606 11.3798 3.47129 10.9984L3.38659 10.9529L0.835091 11.5899C0.785986 11.6022 0.734788 11.6038 0.685028 11.5944C0.635268 11.5851 0.588131 11.565 0.546871 11.5357C0.505611 11.5063 0.47121 11.4684 0.446042 11.4244C0.420873 11.3805 0.405537 11.3316 0.401091 11.2812V11.2238L0.410891 11.1657L1.04789 8.61489L1.00379 8.53089C0.684254 7.89999 0.487113 7.21427 0.422791 6.50999L0.405291 6.24259L0.400391 6.00039C0.400391 4.51518 0.990389 3.0908 2.04059 2.04059C3.0908 0.990389 4.51518 0.400391 6.00039 0.400391ZM6.00039 1.10039C5.14531 1.10025 4.30509 1.32388 3.5632 1.74904C2.82132 2.1742 2.20361 2.7861 1.77145 3.52394C1.3393 4.26177 1.10775 5.09985 1.09981 5.95489C1.09187 6.80993 1.30781 7.65216 1.72619 8.39789C1.75867 8.45588 1.77397 8.52192 1.77029 8.58829L1.76049 8.65409L1.23129 10.7688L3.34809 10.241C3.39112 10.2303 3.43578 10.228 3.47969 10.234L3.54339 10.2487L3.60429 10.276C4.25763 10.6417 4.9861 10.8529 5.73377 10.8933C6.48143 10.9336 7.2284 10.8021 7.91732 10.5088C8.60623 10.2155 9.21877 9.76821 9.70789 9.20129C10.197 8.63438 10.5497 7.96291 10.7389 7.23845C10.9281 6.51399 10.9487 5.75581 10.7992 5.02213C10.6497 4.28845 10.3341 3.59879 9.87656 3.0061C9.41901 2.41341 8.83172 1.93346 8.15979 1.6031C7.48785 1.27275 6.74914 1.10078 6.00039 1.10039ZM6.35039 6.70039C6.43785 6.70023 6.52221 6.73282 6.58684 6.79175C6.65147 6.85067 6.6917 6.93166 6.6996 7.01877C6.70751 7.10587 6.68251 7.19278 6.62954 7.26237C6.57656 7.33197 6.49945 7.37921 6.41339 7.39479L6.35039 7.40039H4.25039C4.16293 7.40055 4.07858 7.36796 4.01394 7.30903C3.94931 7.25011 3.90908 7.16912 3.90118 7.08202C3.89328 6.99491 3.91827 6.908 3.97124 6.83841C4.02422 6.76881 4.10133 6.72157 4.18739 6.70599L4.25039 6.70039H6.35039ZM7.75039 4.60039C7.83785 4.60023 7.92221 4.63282 7.98684 4.69175C8.05147 4.75067 8.0917 4.83166 8.0996 4.91877C8.10751 5.00587 8.08251 5.09278 8.02954 5.16237C7.97656 5.23197 7.89945 5.27921 7.81339 5.29479L7.75039 5.30039H4.25039C4.16293 5.30055 4.07858 5.26796 4.01394 5.20903C3.94931 5.15011 3.90908 5.06912 3.90118 4.98202C3.89328 4.89491 3.91827 4.808 3.97124 4.73841C4.02422 4.66881 4.10133 4.62157 4.18739 4.60599L4.25039 4.60039H7.75039Z" fill="white"/>
</svg>
