<svg width="8" height="18" viewBox="0 0 8 18" fill="none" xmlns="http://www.w3.org/2000/svg">
<path d="M0.908514 0.958874L0.908887 0.958501C1.18547 0.681914 1.50239 0.550781 1.8865 0.550781H5.6595C6.04453 0.550781 6.35999 0.681969 6.63366 0.95738L6.63403 0.957753C6.90829 1.23318 7.039 1.54984 7.039 1.93495V14.2748C7.039 14.4162 6.99662 14.5106 6.91437 14.5925C6.83127 14.6752 6.73607 14.7174 6.59517 14.7174H0.936833C0.79722 14.7174 0.704783 14.6757 0.624581 14.5948C0.54385 14.5133 0.501167 14.4182 0.501167 14.2748V1.93495C0.501167 1.55087 0.632265 1.23454 0.908514 0.958874ZM0.666667 14.0508V14.5508H1.16667H6.37233H6.87233V14.0508V1.93495C6.87233 1.60761 6.76215 1.30383 6.52405 1.06573C6.28558 0.827255 5.9812 0.717448 5.65367 0.717448H1.88533C1.5578 0.717448 1.25342 0.827255 1.01495 1.06573C0.776848 1.30383 0.666667 1.60761 0.666667 1.93495V14.0508ZM0.583333 17.3333H6.95567C6.98055 17.3333 6.99194 17.3373 6.99568 17.3388C6.99902 17.3401 7.00595 17.3433 7.01745 17.3548C7.02894 17.3663 7.03213 17.3733 7.03348 17.3766C7.035 17.3803 7.039 17.3917 7.039 17.4166C7.039 17.4415 7.035 17.4529 7.03348 17.4566C7.03213 17.46 7.02895 17.4669 7.01745 17.4784C7.00595 17.4899 6.99901 17.4931 6.99568 17.4944C6.99194 17.4959 6.98055 17.4999 6.95567 17.4999H0.583333C0.558451 17.4999 0.547065 17.4959 0.543325 17.4944C0.539985 17.4931 0.533051 17.4899 0.521553 17.4784C0.510285 17.4671 0.507109 17.4603 0.505699 17.4568C0.504108 17.4528 0.5 17.441 0.5 17.4154C0.5 17.3899 0.504115 17.3783 0.505517 17.3749C0.506721 17.3719 0.509542 17.3656 0.520318 17.3549C0.531655 17.3436 0.538596 17.3404 0.542204 17.339C0.54624 17.3373 0.558022 17.3333 0.583333 17.3333Z" fill="white" stroke="white"/>
</svg>
