<svg width="15" height="12" viewBox="0 0 15 12" fill="none" xmlns="http://www.w3.org/2000/svg">
<path fill-rule="evenodd" clip-rule="evenodd" d="M4.46333 0.833984H9.87C10.7813 0.833984 11.5167 0.833984 12.0947 0.911984C12.6947 0.991984 13.2 1.16532 13.6013 1.56598C14.0027 1.96732 14.1747 2.47265 14.256 3.07265C14.3333 3.65065 14.3333 4.38598 14.3333 5.29732V6.70398C14.3333 7.61532 14.3333 8.35065 14.256 8.92865C14.1747 9.52865 14.0027 10.034 13.6013 10.4353C13.2 10.8367 12.6947 11.0087 12.0947 11.09C11.5167 11.1673 10.7813 11.1673 9.87 11.1673H4.46333C3.552 11.1673 2.81667 11.1673 2.23867 11.09C1.63867 11.0087 1.13333 10.8367 0.732 10.4353C0.330667 10.034 0.158667 9.52865 0.078 8.92865C-9.93411e-09 8.35065 0 7.61532 0 6.70398V5.29732C0 4.38598 -9.93411e-09 3.65065 0.078 3.07265C0.158 2.47265 0.331333 1.96732 0.732 1.56598C1.13333 1.16465 1.63867 0.992651 2.23867 0.911984C2.81667 0.833984 3.552 0.833984 4.46333 0.833984ZM2.372 1.90265C1.88267 1.96865 1.624 2.08932 1.43933 2.27332C1.25467 2.45798 1.13467 2.71665 1.06867 3.20665C1.00133 3.70932 1 4.37732 1 5.33398V6.66732C1 7.62398 1.00133 8.29198 1.06867 8.79532C1.13467 9.28465 1.25533 9.54332 1.43933 9.72798C1.624 9.91265 1.88267 10.0327 2.37267 10.0987C2.87533 10.166 3.54333 10.1673 4.5 10.1673H9.83333C10.79 10.1673 11.4573 10.166 11.9613 10.0987C12.4507 10.0327 12.7093 9.91198 12.894 9.72798C13.0787 9.54332 13.1987 9.28465 13.2647 8.79465C13.332 8.29198 13.3333 7.62398 13.3333 6.66732V5.33398C13.3333 4.37732 13.332 3.70932 13.2647 3.20598C13.1987 2.71665 13.078 2.45798 12.894 2.27332C12.7093 2.08865 12.4507 1.96865 11.9607 1.90265C11.4573 1.83532 10.79 1.83398 9.83333 1.83398H4.5C3.54333 1.83398 2.87533 1.83532 2.372 1.90265ZM3.33333 8.66732C3.33333 8.53471 3.38601 8.40753 3.47978 8.31376C3.57355 8.22 3.70072 8.16732 3.83333 8.16732H10.5C10.6326 8.16732 10.7598 8.22 10.8536 8.31376C10.9473 8.40753 11 8.53471 11 8.66732C11 8.79993 10.9473 8.9271 10.8536 9.02087C10.7598 9.11464 10.6326 9.16732 10.5 9.16732H3.83333C3.70072 9.16732 3.57355 9.11464 3.47978 9.02087C3.38601 8.9271 3.33333 8.79993 3.33333 8.66732Z" fill="white"/>
</svg>
