<svg width="14" height="14" viewBox="0 0 14 14" fill="none" xmlns="http://www.w3.org/2000/svg">
<path d="M12.13 9.62172C11.8265 9.09891 11.3753 7.61961 11.3753 5.6875C11.3753 4.52718 10.9144 3.41438 10.0939 2.59391C9.27346 1.77344 8.16067 1.3125 7.00034 1.3125C5.84002 1.3125 4.72722 1.77344 3.90675 2.59391C3.08628 3.41438 2.62534 4.52718 2.62534 5.6875C2.62534 7.62016 2.17362 9.09891 1.87011 9.62172C1.7926 9.75463 1.75151 9.90564 1.75098 10.0595C1.75045 10.2134 1.79051 10.3646 1.8671 10.4981C1.94369 10.6315 2.05412 10.7424 2.18724 10.8196C2.32037 10.8967 2.47148 10.9374 2.62534 10.9375H4.85714C4.95808 11.4314 5.22651 11.8753 5.61704 12.1941C6.00757 12.5129 6.49622 12.687 7.00034 12.687C7.50447 12.687 7.99312 12.5129 8.38364 12.1941C8.77417 11.8753 9.04261 11.4314 9.14355 10.9375H11.3753C11.5292 10.9373 11.6802 10.8965 11.8132 10.8194C11.9463 10.7422 12.0566 10.6313 12.1332 10.4978C12.2097 10.3644 12.2497 10.2132 12.2492 10.0594C12.2486 9.90555 12.2075 9.75459 12.13 9.62172ZM7.00034 11.8125C6.72899 11.8124 6.46434 11.7282 6.24281 11.5715C6.02128 11.4148 5.85376 11.1933 5.76331 10.9375H8.23737C8.14692 11.1933 7.97941 11.4148 7.75787 11.5715C7.53634 11.7282 7.27169 11.8124 7.00034 11.8125ZM2.62534 10.0625C3.04644 9.33844 3.50034 7.66063 3.50034 5.6875C3.50034 4.75924 3.86909 3.869 4.52547 3.21263C5.18185 2.55625 6.07208 2.1875 7.00034 2.1875C7.9286 2.1875 8.81884 2.55625 9.47522 3.21263C10.1316 3.869 10.5003 4.75924 10.5003 5.6875C10.5003 7.65899 10.9532 9.3368 11.3753 10.0625H2.62534Z" fill="white"/>
</svg>
