<svg width="12" height="12" viewBox="0 0 12 12" fill="none" xmlns="http://www.w3.org/2000/svg">
<path fill-rule="evenodd" clip-rule="evenodd" d="M11.8534 1.49481C10.305 3.79695 5.64097 8.45337 5.64097 8.45337L5.63914 8.45155C5.62819 8.46354 5.61828 8.47606 5.60654 8.4878C5.3134 8.78042 4.91567 8.89883 4.53359 8.85371C4.65643 9.36802 4.52681 9.93266 4.13481 10.3346C4.13481 10.3346 2.17356 12.7598 0 11.2317C0 11.2317 1.17206 10.9034 1.27404 9.9577C1.27404 9.9577 1.11755 9.00471 1.97795 8.12163C2.36368 7.72572 2.90329 7.58984 3.39804 7.70538C3.3584 7.32878 3.47706 6.93861 3.76604 6.6499C3.77751 6.63816 3.79029 6.62825 3.80229 6.61704L3.80046 6.61521C3.80046 6.61521 8.46158 1.95618 10.7671 0.409861C11.0722 0.191566 11.4984 0.217125 11.7723 0.49071C12.0469 0.764817 12.0722 1.19019 11.8534 1.49481ZM3.77177 8.4758C3.57826 8.28228 3.32736 8.17196 3.05899 8.17196C2.78958 8.17196 2.53503 8.28046 2.34334 8.47737C1.6822 9.15598 1.7813 9.9337 1.78391 9.95796C1.72706 10.4848 1.42843 10.9336 1.11703 11.2036C1.22709 11.2236 1.33846 11.2338 1.45217 11.2338C2.69099 11.2338 3.73474 10.0185 3.74439 10.007C3.74439 10.007 4.45874 9.16302 3.77177 8.4758ZM3.91209 7.56872C3.91209 7.77632 3.98746 7.97192 4.13481 8.11876C4.28217 8.26585 4.48638 8.35114 4.6945 8.35114C4.90263 8.35114 5.09067 8.26611 5.23333 8.12319L5.63862 7.71373C5.65922 7.6926 5.68739 7.66391 5.71008 7.6407L4.61548 6.5461C4.59149 6.56931 4.56201 6.59774 4.54063 6.61886L4.13455 7.01972C3.98746 7.16629 3.91209 7.36112 3.91209 7.56872ZM11.404 0.860272C11.3391 0.795331 11.2632 0.785682 11.2233 0.785682C11.168 0.785682 11.1153 0.802373 11.0576 0.843581C9.43595 1.93114 6.3634 4.85138 4.98061 6.19088L6.0653 7.27557C7.40584 5.89435 10.3331 2.82023 11.4296 1.19045C11.5036 1.08769 11.4929 0.948685 11.404 0.860272Z" fill="white"/>
</svg>
