<svg width="13" height="8" viewBox="0 0 13 8" fill="none" xmlns="http://www.w3.org/2000/svg">
<path d="M8.8 3.20078C8.8 3.41295 8.71571 3.61644 8.56569 3.76647C8.41566 3.9165 8.21217 4.00078 8 4.00078C7.78783 4.00078 7.58434 3.9165 7.43431 3.76647C7.28429 3.61644 7.2 3.41295 7.2 3.20078C7.2 2.98861 7.28429 2.78513 7.43431 2.6351C7.58434 2.48507 7.78783 2.40078 8 2.40078C8.21217 2.40078 8.41566 2.48507 8.56569 2.6351C8.71571 2.78513 8.8 2.98861 8.8 3.20078ZM10.4 4.00078C10.6122 4.00078 10.8157 3.9165 10.9657 3.76647C11.1157 3.61644 11.2 3.41295 11.2 3.20078C11.2 2.98861 11.1157 2.78513 10.9657 2.6351C10.8157 2.48507 10.6122 2.40078 10.4 2.40078C10.1878 2.40078 9.98434 2.48507 9.83432 2.6351C9.68429 2.78513 9.6 2.98861 9.6 3.20078C9.6 3.41295 9.68429 3.61644 9.83432 3.76647C9.98434 3.9165 10.1878 4.00078 10.4 4.00078ZM0 2.80078C0 2.27035 0.210714 1.76164 0.585786 1.38657C0.960859 1.01149 1.46957 0.800781 2 0.800781H10.8C11.3304 0.800781 11.8391 1.01149 12.2142 1.38657C12.5893 1.76164 12.8 2.27035 12.8 2.80078V5.20078C12.8 5.73121 12.5893 6.23992 12.2142 6.615C11.8391 6.99007 11.3304 7.20078 10.8 7.20078H2C1.46957 7.20078 0.960859 6.99007 0.585786 6.615C0.210714 6.23992 0 5.73121 0 5.20078V2.80078ZM2 1.60078C1.68174 1.60078 1.37652 1.72721 1.15147 1.95225C0.926428 2.1773 0.8 2.48252 0.8 2.80078V5.20078C0.8 5.51904 0.926428 5.82427 1.15147 6.04931C1.37652 6.27435 1.68174 6.40078 2 6.40078H10.8C11.1183 6.40078 11.4235 6.27435 11.6485 6.04931C11.8736 5.82427 12 5.51904 12 5.20078V2.80078C12 2.48252 11.8736 2.1773 11.6485 1.95225C11.4235 1.72721 11.1183 1.60078 10.8 1.60078H2Z" fill="white"/>
</svg>
