<svg width="14" height="10" viewBox="0 0 14 10" fill="none" xmlns="http://www.w3.org/2000/svg">
<path d="M1 7.49935V2.49935C1 2.14573 1.14048 1.80659 1.39052 1.55654C1.64057 1.30649 1.97971 1.16602 2.33333 1.16602H8C8.35362 1.16602 8.69276 1.30649 8.94281 1.55654C9.19286 1.80659 9.33333 2.14573 9.33333 2.49935V7.49935C9.33333 7.85297 9.19286 8.19211 8.94281 8.44216C8.69276 8.69221 8.35362 8.83268 8 8.83268H2.33333C1.97971 8.83268 1.64057 8.69221 1.39052 8.44216C1.14048 8.19211 1 7.85297 1 7.49935ZM12.4453 1.66002L9.77867 4.03535C9.74352 4.06656 9.71537 4.10485 9.69607 4.1477C9.67677 4.19056 9.66675 4.23701 9.66667 4.28402V5.46935C9.66675 5.51635 9.67677 5.5628 9.69607 5.60566C9.71537 5.64852 9.74352 5.68681 9.77867 5.71802L12.4453 8.09335C12.4934 8.13601 12.5527 8.16388 12.6162 8.1736C12.6798 8.18332 12.7447 8.17448 12.8033 8.14813C12.8619 8.12179 12.9117 8.07907 12.9466 8.02511C12.9815 7.97116 13 7.90827 13 7.84402V1.90935C13 1.84509 12.9815 1.78221 12.9466 1.72825C12.9117 1.6743 12.8619 1.63158 12.8033 1.60523C12.7447 1.57889 12.6798 1.57004 12.6162 1.57976C12.5527 1.58948 12.4934 1.61735 12.4453 1.66002Z" stroke="white" stroke-width="0.8" stroke-linecap="round" stroke-linejoin="round"/>
</svg>
