<svg width="36" height="36" viewBox="0 0 36 36" fill="none" xmlns="http://www.w3.org/2000/svg">
<rect width="36" height="36" rx="18" fill="#3D3D3D"/>
<path fill-rule="evenodd" clip-rule="evenodd" d="M18 11.6C16.8806 11.5998 15.7807 11.8932 14.8102 12.4509C13.8396 13.0086 13.0323 13.8111 12.4688 14.7784C11.9053 15.7456 11.6054 16.8437 11.5989 17.9631C11.5925 19.0824 11.8797 20.1839 12.432 21.1576C12.8053 20.6724 13.2851 20.2797 13.8345 20.0096C14.3838 19.7395 14.9879 19.5993 15.6 19.6H20.4C21.0121 19.5993 21.6162 19.7395 22.1655 20.0096C22.7149 20.2797 23.1947 20.6724 23.568 21.1576C24.1203 20.1839 24.4075 19.0824 24.4011 17.9631C24.3946 16.8437 24.0947 15.7456 23.5312 14.7784C22.9677 13.8111 22.1604 13.0086 21.1898 12.4509C20.2193 11.8932 19.1194 11.5998 18 11.6ZM24.3544 22.8608C25.424 21.4664 26.0026 19.7574 26 18C26 13.5816 22.4184 10 18 10C13.5816 10 10 13.5816 10 18C9.99737 19.7574 10.5759 21.4664 11.6456 22.8608L11.6416 22.8752L11.9256 23.2056C12.6759 24.0828 13.6075 24.7869 14.6562 25.2693C15.7049 25.7517 16.8457 26.001 18 26C19.6219 26.003 21.2059 25.5103 22.54 24.588C23.1087 24.195 23.6245 23.7304 24.0744 23.2056L24.3584 22.8752L24.3544 22.8608ZM18 13.2C17.3635 13.2 16.753 13.4529 16.3029 13.9029C15.8529 14.353 15.6 14.9635 15.6 15.6C15.6 16.2365 15.8529 16.847 16.3029 17.297C16.753 17.7471 17.3635 18 18 18C18.6365 18 19.247 17.7471 19.6971 17.297C20.1471 16.847 20.4 16.2365 20.4 15.6C20.4 14.9635 20.1471 14.353 19.6971 13.9029C19.247 13.4529 18.6365 13.2 18 13.2Z" fill="#C6C1C1"/>
</svg>
