<svg width="36" height="36" viewBox="0 0 36 36" fill="none" xmlns="http://www.w3.org/2000/svg">
<rect width="35.36" height="35.3408" rx="17.6704" fill="#3D3D3D"/>
<path d="M21.368 19.4088C21.368 20.0808 21.5592 20.3488 22.0592 20.3488C23.1736 20.3488 23.8832 18.9288 23.8832 16.5672C23.8832 12.9576 21.2528 11.2296 17.9688 11.2296C14.5904 11.2296 11.5176 13.4952 11.5176 17.7768C11.5176 21.8664 14.2056 24.0936 18.3336 24.0936C19.7352 24.0936 20.676 23.94 22.1152 23.46L22.424 24.7456C21.0032 25.2072 19.4848 25.3408 18.3144 25.3408C12.9 25.3408 10 22.3648 10 17.776C10 13.1488 13.3608 10 17.988 10C22.8072 10 25.36 12.88 25.36 16.4128C25.36 19.408 24.42 21.6928 21.4632 21.6928C20.1184 21.6928 19.236 21.1552 19.1208 19.964C18.7752 21.2888 17.8536 21.6928 16.6048 21.6928C14.9344 21.6928 13.5328 20.4056 13.5328 17.8144C13.5328 15.2032 14.7624 13.5904 16.9704 13.5904C18.1416 13.5904 18.8712 14.0512 19.196 14.7808L19.7536 13.7632H21.3664V19.4088H21.368ZM19.0072 16.8744C19.0072 15.8192 18.2192 15.3768 17.5664 15.3768C16.856 15.3768 16.0696 15.952 16.0696 17.6424C16.0696 18.9864 16.6648 19.7352 17.5664 19.7352C18.2 19.7352 19.0072 19.332 19.0072 18.2184V16.8744Z" fill="#C6C1C1"/>
</svg>
