<svg width="34" height="34" viewBox="0 0 34 34" fill="none" xmlns="http://www.w3.org/2000/svg">
<rect width="34" height="34" rx="17" fill="#3D3D3D"/>
<path d="M10 24C10 22.5855 10.5619 21.229 11.5621 20.2288C12.5623 19.2286 13.9188 18.6667 15.3333 18.6667C16.7478 18.6667 18.1044 19.2286 19.1046 20.2288C20.1048 21.229 20.6667 22.5855 20.6667 24H19.3333C19.3333 22.9391 18.9119 21.9217 18.1618 21.1716C17.4116 20.4214 16.3942 20 15.3333 20C14.2725 20 13.2551 20.4214 12.5049 21.1716C11.7548 21.9217 11.3333 22.9391 11.3333 24H10ZM15.3333 18C13.1233 18 11.3333 16.21 11.3333 14C11.3333 11.79 13.1233 10 15.3333 10C17.5433 10 19.3333 11.79 19.3333 14C19.3333 16.21 17.5433 18 15.3333 18ZM15.3333 16.6667C16.8067 16.6667 18 15.4733 18 14C18 12.5267 16.8067 11.3333 15.3333 11.3333C13.86 11.3333 12.6667 12.5267 12.6667 14C12.6667 15.4733 13.86 16.6667 15.3333 16.6667ZM20.856 19.1353C21.7929 19.5573 22.588 20.2408 23.1457 21.1038C23.7035 21.9668 24.0001 22.9725 24 24H22.6667C22.6668 23.2293 22.4444 22.475 22.0261 21.8277C21.6077 21.1804 21.0114 20.6678 20.3087 20.3513L20.856 19.1353ZM20.3973 11.6087C21.069 11.8855 21.6433 12.3557 22.0473 12.9595C22.4514 13.5633 22.6669 14.2735 22.6667 15C22.6669 15.9149 22.3251 16.7968 21.7084 17.4726C21.0916 18.1483 20.2444 18.569 19.3333 18.652V17.31C19.8273 17.2393 20.2856 17.012 20.6409 16.6616C20.9962 16.3113 21.2298 15.8562 21.3074 15.3633C21.3851 14.8704 21.3027 14.3655 21.0723 13.9229C20.8419 13.4803 20.4756 13.1232 20.0273 12.904L20.3973 11.6087Z" fill="#C6C1C1"/>
</svg>
