<svg width="23" height="20" viewBox="0 0 23 20" fill="none" xmlns="http://www.w3.org/2000/svg">
<path d="M19.75 2.12778C20.1281 2.12778 20.4375 2.44695 20.4375 2.83704V17.0134L20.2227 16.7252L14.3789 8.92338C14.1855 8.66184 13.8805 8.51112 13.5625 8.51112C13.2445 8.51112 12.9437 8.66184 12.7461 8.92338L9.17969 13.6843L7.86914 11.7914C7.67578 11.5122 7.36641 11.3482 7.03125 11.3482C6.69609 11.3482 6.38672 11.5122 6.19336 11.7959L2.75586 16.7607L2.5625 17.0355V17.0222V2.83704C2.5625 2.44695 2.87187 2.12778 3.25 2.12778H19.75ZM3.25 0C1.7332 0 0.5 1.27223 0.5 2.83704V17.0222C0.5 18.587 1.7332 19.8593 3.25 19.8593H19.75C21.2668 19.8593 22.5 18.587 22.5 17.0222V2.83704C22.5 1.27223 21.2668 0 19.75 0H3.25ZM6.6875 8.51112C6.95835 8.51112 7.22655 8.45608 7.47678 8.34915C7.72702 8.24222 7.95439 8.08549 8.14591 7.88791C8.33743 7.69032 8.48935 7.45576 8.593 7.1976C8.69665 6.93945 8.75 6.66276 8.75 6.38334C8.75 6.10391 8.69665 5.82723 8.593 5.56907C8.48935 5.31092 8.33743 5.07635 8.14591 4.87877C7.95439 4.68119 7.72702 4.52446 7.47678 4.41753C7.22655 4.3106 6.95835 4.25556 6.6875 4.25556C6.41665 4.25556 6.14845 4.3106 5.89822 4.41753C5.64798 4.52446 5.42061 4.68119 5.22909 4.87877C5.03757 5.07635 4.88565 5.31092 4.782 5.56907C4.67835 5.82723 4.625 6.10391 4.625 6.38334C4.625 6.66276 4.67835 6.93945 4.782 7.1976C4.88565 7.45576 5.03757 7.69032 5.22909 7.88791C5.42061 8.08549 5.64798 8.24222 5.89822 8.34915C6.14845 8.45608 6.41665 8.51112 6.6875 8.51112Z" fill="white"/>
</svg>
