<svg width="20" height="23" viewBox="0 0 20 23" fill="none" xmlns="http://www.w3.org/2000/svg">
<path d="M15.9627 3.39473C14.8808 2.28028 13.1249 2.28028 12.043 3.39473L3.88426 11.7988C2.01751 13.7216 2.01751 16.8366 3.88426 18.7595C5.75101 20.6824 8.77506 20.6824 10.6418 18.7595L17.3816 11.817C17.8649 11.3192 18.6542 11.3192 19.1375 11.817C19.6208 12.3149 19.6208 13.1279 19.1375 13.6257L12.3977 20.5682C9.55989 23.4913 4.96618 23.4913 2.12836 20.5682C-0.709454 17.6451 -0.709454 12.9132 2.12836 9.99007L10.2871 1.58603C12.3401 -0.528678 15.6656 -0.528678 17.7186 1.58603C19.7716 3.70074 19.7716 7.1263 17.7186 9.24101L9.91462 17.2797C8.64647 18.5859 6.58905 18.5859 5.3209 17.2797C4.05275 15.9734 4.05275 13.8541 5.3209 12.5478L11.706 5.97075C12.1893 5.4729 12.9786 5.4729 13.4619 5.97075C13.9452 6.4686 13.9452 7.2816 13.4619 7.77944L7.0768 14.3565C6.77972 14.6625 6.77972 15.1649 7.0768 15.471C7.37388 15.777 7.86163 15.777 8.15872 15.471L15.9627 7.43232C17.0446 6.31787 17.0446 4.50918 15.9627 3.39473Z" fill="white"/>
</svg>
