<svg width="17" height="18" viewBox="0 0 17 18" fill="none" xmlns="http://www.w3.org/2000/svg">
<path d="M15.1499 8.80203C15.1499 7.02356 14.4651 5.31793 13.2461 4.06037C12.0271 2.8028 10.3738 2.0963 8.6499 2.0963C6.92599 2.0963 5.27269 2.8028 4.05371 4.06037C2.83472 5.31793 2.1499 7.02356 2.1499 8.80203C2.1499 10.5805 2.83472 12.2861 4.05371 13.5437C5.27269 14.8013 6.92599 15.5078 8.6499 15.5078C10.3738 15.5078 12.0271 14.8013 13.2461 13.5437C14.4651 12.2861 15.1499 10.5805 15.1499 8.80203ZM0.649902 8.80203C0.649902 6.61315 1.49276 4.51391 2.99305 2.96614C4.49334 1.41836 6.52817 0.548828 8.6499 0.548828C10.7716 0.548828 12.8065 1.41836 14.3068 2.96614C15.807 4.51391 16.6499 6.61315 16.6499 8.80203C16.6499 10.9909 15.807 13.0902 14.3068 14.6379C12.8065 16.1857 10.7716 17.0552 8.6499 17.0552C6.52817 17.0552 4.49334 16.1857 2.99305 14.6379C1.49276 13.0902 0.649902 10.9909 0.649902 8.80203ZM6.1999 10.8041C6.6749 11.3328 7.4874 11.897 8.6499 11.897C9.8124 11.897 10.6249 11.3328 11.0999 10.8041C11.3812 10.4914 11.8562 10.4688 12.1593 10.7589C12.4624 11.0491 12.4843 11.5391 12.203 11.8519C11.5155 12.6191 10.328 13.4445 8.65303 13.4445C6.97803 13.4445 5.7874 12.6224 5.10303 11.8519C4.82178 11.5391 4.84053 11.0491 5.14678 10.7589C5.45303 10.4688 5.9249 10.4881 6.20615 10.8041H6.1999ZM5.1624 7.25456C5.1624 6.98095 5.26776 6.71854 5.4553 6.52507C5.64283 6.3316 5.89719 6.22291 6.1624 6.22291C6.42762 6.22291 6.68197 6.3316 6.86951 6.52507C7.05705 6.71854 7.1624 6.98095 7.1624 7.25456C7.1624 7.52817 7.05705 7.79057 6.86951 7.98404C6.68197 8.17752 6.42762 8.28621 6.1624 8.28621C5.89719 8.28621 5.64283 8.17752 5.4553 7.98404C5.26776 7.79057 5.1624 7.52817 5.1624 7.25456ZM11.1624 6.22291C11.4276 6.22291 11.682 6.3316 11.8695 6.52507C12.057 6.71854 12.1624 6.98095 12.1624 7.25456C12.1624 7.52817 12.057 7.79057 11.8695 7.98404C11.682 8.17752 11.4276 8.28621 11.1624 8.28621C10.8972 8.28621 10.6428 8.17752 10.4553 7.98404C10.2678 7.79057 10.1624 7.52817 10.1624 7.25456C10.1624 6.98095 10.2678 6.71854 10.4553 6.52507C10.6428 6.3316 10.8972 6.22291 11.1624 6.22291Z" fill="white"/>
</svg>
