<svg width="14" height="14" viewBox="0 0 14 14" fill="none" xmlns="http://www.w3.org/2000/svg">
<path d="M5.57199 2.42829H8.42913C8.42913 2.04941 8.27862 1.68605 8.01071 1.41814C7.7428 1.15023 7.37944 0.999721 7.00056 0.999721C6.62168 0.999721 6.25831 1.15023 5.99041 1.41814C5.7225 1.68605 5.57199 2.04941 5.57199 2.42829ZM4.71484 2.42829C4.71484 1.82208 4.95566 1.2407 5.38431 0.812048C5.81297 0.383394 6.39435 0.142578 7.00056 0.142578C7.60677 0.142578 8.18815 0.383394 8.6168 0.812048C9.04546 1.2407 9.28627 1.82208 9.28627 2.42829H12.8577C12.9714 2.42829 13.0804 2.47345 13.1607 2.55382C13.2411 2.63419 13.2863 2.7432 13.2863 2.85686C13.2863 2.97053 13.2411 3.07954 13.1607 3.15991C13.0804 3.24028 12.9714 3.28543 12.8577 3.28544H12.1091L11.4137 11.63C11.3631 12.237 11.0862 12.8029 10.638 13.2154C10.1897 13.6279 9.60285 13.8568 8.9937 13.8569H5.00741C4.39827 13.8568 3.81138 13.6279 3.36313 13.2154C2.91488 12.8029 2.63801 12.237 2.58741 11.63L1.89199 3.28544H1.14342C1.02975 3.28543 0.920742 3.24028 0.840369 3.15991C0.759997 3.07954 0.714844 2.97053 0.714844 2.85686C0.714844 2.7432 0.759997 2.63419 0.840369 2.55382C0.920742 2.47345 1.02975 2.42829 1.14342 2.42829H4.71484ZM3.4417 11.5586C3.47438 11.9514 3.65349 12.3176 3.9435 12.5845C4.23351 12.8514 4.61325 12.9996 5.00741 12.9997H8.9937C9.38786 12.9996 9.7676 12.8514 10.0576 12.5845C10.3476 12.3176 10.5267 11.9514 10.5594 11.5586L11.2497 3.28544H2.75199L3.4417 11.5586ZM5.71484 5.28543C5.82851 5.28544 5.93752 5.33059 6.01789 5.41096C6.09826 5.49133 6.14341 5.60034 6.14341 5.71401V10.5711C6.14341 10.6848 6.09826 10.7938 6.01789 10.8742C5.93752 10.9546 5.82851 10.9997 5.71484 10.9997C5.60118 10.9997 5.49217 10.9546 5.4118 10.8742C5.33143 10.7938 5.28627 10.6848 5.28627 10.5711V5.71401C5.28627 5.60034 5.33143 5.49133 5.4118 5.41096C5.49217 5.33059 5.60118 5.28543 5.71484 5.28543ZM8.71484 5.71401C8.71484 5.60034 8.66969 5.49133 8.58932 5.41096C8.50894 5.33059 8.39994 5.28543 8.28627 5.28543C8.17261 5.28543 8.0636 5.33059 7.98323 5.41096C7.90285 5.49133 7.8577 5.60034 7.8577 5.71401V10.5711C7.8577 10.6848 7.90285 10.7938 7.98323 10.8742C8.0636 10.9546 8.17261 10.9997 8.28627 10.9997C8.39994 10.9997 8.50894 10.9546 8.58932 10.8742C8.66969 10.7938 8.71484 10.6848 8.71484 10.5711V5.71401Z" fill="white"/>
</svg>
