<svg width="14" height="10" viewBox="0 0 14 10" fill="none" xmlns="http://www.w3.org/2000/svg">
<path fill-rule="evenodd" clip-rule="evenodd" d="M8.64167 0.391768C8.75885 0.274726 8.91771 0.208984 9.08333 0.208984C9.24896 0.208984 9.40781 0.274726 9.525 0.391768L13.6917 4.55843C13.8087 4.67562 13.8744 4.83448 13.8744 5.0001C13.8744 5.16573 13.8087 5.32458 13.6917 5.44177L9.525 9.60843C9.46778 9.66984 9.39878 9.71909 9.32211 9.75325C9.24545 9.78741 9.16269 9.80578 9.07877 9.80726C8.99485 9.80874 8.91149 9.7933 8.83367 9.76187C8.75585 9.73044 8.68515 9.68365 8.6258 9.6243C8.56645 9.56495 8.51966 9.49426 8.48823 9.41643C8.4568 9.33861 8.44136 9.25525 8.44284 9.17133C8.44432 9.08741 8.46269 9.00465 8.49685 8.92799C8.53101 8.85132 8.58026 8.78232 8.64167 8.7251L11.7417 5.6251H4.91667C4.3225 5.6251 3.41667 5.80843 2.6775 6.34093C1.97083 6.84927 1.375 7.70343 1.375 9.16677C1.375 9.33253 1.30915 9.4915 1.19194 9.60871C1.07473 9.72592 0.91576 9.79177 0.75 9.79177C0.58424 9.79177 0.425268 9.72592 0.308058 9.60871C0.190848 9.4915 0.125 9.33253 0.125 9.16677C0.125 7.29677 0.918333 6.06677 1.9475 5.32593C2.94417 4.60843 4.1225 4.3751 4.91667 4.3751H11.7417L8.64167 1.2751C8.52462 1.15791 8.45888 0.99906 8.45888 0.833434C8.45888 0.667809 8.52462 0.508955 8.64167 0.391768Z" fill="white"/>
</svg>
