<svg width="20" height="20" viewBox="0 0 20 20" fill="none" xmlns="http://www.w3.org/2000/svg">
<path d="M15.0639 1.29492L18.5414 4.91992V18.7049H5.55078V18.7499H18.5858V4.96555L15.0639 1.29492Z" fill="#909090"/>
<path d="M15.0183 1.25H5.50391V18.705H18.5389V4.92063L15.0183 1.25Z" fill="#F4F4F4"/>
<path d="M5.40781 2.1875H1.41406V6.45437H13.9766V2.1875H5.40781Z" fill="#7A7B7C"/>
<path d="M14.0442 6.38133H1.49609V2.11133H14.0442V6.38133Z" fill="#DD2025"/>
<path d="M5.65672 2.83367H4.83984V5.83367H5.48234V4.82179L5.62422 4.82992C5.76212 4.82802 5.89876 4.80331 6.02859 4.75679C6.14273 4.71804 6.24763 4.65612 6.33672 4.57492C6.42807 4.49832 6.49985 4.40105 6.54609 4.29117C6.60937 4.10912 6.63178 3.91536 6.61172 3.72367C6.60816 3.5867 6.58414 3.45104 6.54047 3.32117C6.50111 3.2273 6.4426 3.14268 6.36866 3.07273C6.29472 3.00277 6.207 2.94902 6.11109 2.91492C6.02842 2.8843 5.94273 2.86251 5.85547 2.84992C5.78955 2.83918 5.72288 2.83375 5.65609 2.83367M5.53797 4.26742H5.48234V3.34242H5.60297C5.65621 3.33858 5.70963 3.34675 5.75928 3.36633C5.80894 3.38591 5.85356 3.4164 5.88984 3.45554C5.96504 3.55618 6.00522 3.67867 6.00422 3.80429C6.00422 3.95804 6.00422 4.09742 5.86547 4.19554C5.76554 4.25059 5.65174 4.27597 5.53797 4.26742ZM7.83234 2.82554C7.76297 2.82554 7.69547 2.83054 7.64797 2.83242L7.49922 2.83617H7.01172V5.83617H7.58547C7.80471 5.84181 8.02294 5.80466 8.22797 5.72679C8.39304 5.6616 8.53916 5.5561 8.65297 5.41992C8.7645 5.28314 8.84414 5.12322 8.88609 4.95179C8.93539 4.758 8.95934 4.55863 8.95734 4.35867C8.96958 4.12252 8.9513 3.88577 8.90297 3.65429C8.8567 3.4841 8.77106 3.32717 8.65297 3.19617C8.56034 3.09024 8.4464 3.00505 8.31859 2.94617C8.20911 2.89542 8.0939 2.85807 7.97547 2.83492C7.92837 2.8272 7.88069 2.82364 7.83297 2.82429M7.71922 5.28492H7.65672V3.36992H7.66484C7.7937 3.35502 7.92409 3.37827 8.03984 3.43679C8.12463 3.5045 8.19372 3.58979 8.24234 3.68679C8.29482 3.78888 8.32506 3.90092 8.33109 4.01554C8.33672 4.15304 8.33109 4.26554 8.33109 4.35867C8.33341 4.46594 8.3265 4.57321 8.31047 4.67929C8.29081 4.78808 8.25522 4.89338 8.20484 4.99179C8.14794 5.08357 8.07021 5.16065 7.97797 5.21679C7.90091 5.2668 7.80956 5.29008 7.71797 5.28304M10.893 2.83617H9.37422V5.83617H10.0167V4.64617H10.8292V4.08867H10.0167V3.39367H10.8917V2.83617" fill="#464648"/>
<path d="M13.6144 12.6594C13.6144 12.6594 15.6069 12.2982 15.6069 12.9788C15.6069 13.6594 14.3725 13.3826 13.6144 12.6594ZM12.1413 12.7113C11.8247 12.7811 11.5161 12.8835 11.2206 13.0169L11.4706 12.4544C11.7206 11.8919 11.98 11.1251 11.98 11.1251C12.2776 11.6276 12.6247 12.0992 13.0163 12.5326C12.7215 12.5765 12.4294 12.6366 12.1413 12.7126V12.7113ZM11.3525 8.64882C11.3525 8.05569 11.5444 7.89382 11.6938 7.89382C11.8431 7.89382 12.0113 7.96569 12.0169 8.48069C11.9682 8.99853 11.8597 9.509 11.6938 10.0019C11.4657 9.58836 11.3479 9.12299 11.3519 8.65069L11.3525 8.64882ZM8.4469 15.2213C7.83565 14.8557 9.72877 13.7301 10.0719 13.6938C10.07 13.6944 9.0869 15.6038 8.4469 15.2213ZM16.1888 13.0594C16.1825 12.9969 16.1263 12.3051 14.895 12.3344C14.3818 12.3254 13.8688 12.3616 13.3619 12.4426C12.8706 11.948 12.4477 11.3899 12.1044 10.7832C12.3205 10.1578 12.4515 9.50607 12.4938 8.84569C12.4756 8.09569 12.2963 7.66569 11.7213 7.67194C11.1463 7.67819 11.0625 8.18132 11.1381 8.93007C11.2122 9.43324 11.3519 9.92451 11.5538 10.3913C11.5538 10.3913 11.2881 11.2182 10.9369 12.0407C10.5856 12.8632 10.3456 13.2944 10.3456 13.2944C9.73476 13.4931 9.15973 13.7885 8.64252 14.1694C8.12752 14.6488 7.91815 15.0169 8.1894 15.3851C8.42315 15.7026 9.24127 15.7744 9.97252 14.8163C10.3604 14.321 10.7153 13.8007 11.035 13.2588C11.035 13.2588 12.15 12.9532 12.4969 12.8694C12.8438 12.7857 13.2631 12.7194 13.2631 12.7194C13.2631 12.7194 14.2813 13.7438 15.2631 13.7076C16.245 13.6713 16.1975 13.1207 16.1913 13.0607" fill="#DD2025"/>
<path d="M14.9727 1.29883V4.96945H18.4933L14.9727 1.29883Z" fill="#909090"/>
<path d="M15.0195 1.25V4.92063H18.5402L15.0195 1.25Z" fill="#F4F4F4"/>
<path d="M5.60984 2.78484H4.79297V5.78484H5.43797V4.77359L5.58047 4.78172C5.71837 4.77982 5.85501 4.75511 5.98484 4.70859C6.09898 4.66984 6.20388 4.60792 6.29297 4.52672C6.38364 4.44991 6.45476 4.35265 6.50047 4.24297C6.56375 4.06091 6.58615 3.86716 6.56609 3.67547C6.56253 3.5385 6.53851 3.40283 6.49484 3.27297C6.45549 3.1791 6.39697 3.09448 6.32303 3.02452C6.2491 2.95457 6.16137 2.90082 6.06547 2.86672C5.98241 2.8358 5.8963 2.8138 5.80859 2.80109C5.74268 2.79036 5.676 2.78492 5.60922 2.78484M5.49109 4.21859H5.43547V3.29359H5.55672C5.60996 3.28975 5.66338 3.29792 5.71303 3.31751C5.76269 3.33709 5.80731 3.36757 5.84359 3.40672C5.91879 3.50735 5.95896 3.62984 5.95797 3.75547C5.95797 3.90922 5.95797 4.04859 5.81922 4.14672C5.71929 4.20176 5.60549 4.22652 5.49172 4.21797M7.78547 2.77672C7.71609 2.77672 7.64859 2.78172 7.60109 2.78359L7.45422 2.78734H6.96672V5.78734H7.54047C7.75971 5.79298 7.97794 5.75583 8.18297 5.67797C8.34804 5.61278 8.49416 5.50727 8.60797 5.37109C8.7195 5.23431 8.79914 5.07439 8.84109 4.90297C8.89039 4.70917 8.91434 4.5098 8.91234 4.30984C8.92458 4.07369 8.9063 3.83694 8.85797 3.60547C8.8117 3.43527 8.72606 3.27834 8.60797 3.14734C8.51534 3.04141 8.4014 2.95622 8.27359 2.89734C8.16411 2.84659 8.0489 2.80924 7.93047 2.78609C7.88337 2.77837 7.83569 2.77482 7.78797 2.77547M7.67422 5.23609H7.61172V3.32109H7.61984C7.74869 3.30619 7.87909 3.32944 7.99484 3.38797C8.07963 3.45567 8.14872 3.54097 8.19734 3.63797C8.24982 3.74005 8.28006 3.85209 8.28609 3.96672C8.29172 4.10422 8.28609 4.21672 8.28609 4.30984C8.2884 4.41711 8.2815 4.52438 8.26547 4.63047C8.24581 4.73926 8.21022 4.84455 8.15984 4.94297C8.10294 5.03474 8.02521 5.11182 7.93297 5.16797C7.85591 5.21797 7.76456 5.24125 7.67297 5.23422M10.8461 2.78734H9.32734V5.78734H9.96984V4.59734H10.7823V4.03984H9.96984V3.34484H10.8448V2.78734" fill="white"/>
</svg>
