<svg width="17" height="9" viewBox="0 0 17 9" fill="none" xmlns="http://www.w3.org/2000/svg">
<path d="M3.15681 4.73134C3.85478 3.55224 4.92089 2.63518 6.19106 2.12128C7.46124 1.60739 8.8651 1.52514 10.1866 1.88719C11.5081 2.24924 12.674 3.03554 13.5049 4.12506C14.3358 5.21459 14.7856 6.54698 14.7851 7.91718C14.7851 8.13819 14.8729 8.35015 15.0292 8.50643C15.1855 8.66271 15.3975 8.75051 15.6185 8.75051C15.8395 8.75051 16.0514 8.66271 16.2077 8.50643C16.364 8.35015 16.4518 8.13819 16.4518 7.91718C16.4519 6.24112 15.9201 4.60827 14.9329 3.25379C13.9457 1.89931 12.5541 0.893085 10.9585 0.380029C9.36291 -0.133028 7.64565 -0.126441 6.05403 0.398841C4.46241 0.924123 3.07857 1.94099 2.10181 3.30301L1.65431 0.76551C1.61596 0.547811 1.4927 0.354262 1.31165 0.22744C1.1306 0.100619 0.906588 0.0509137 0.68889 0.0892596C0.471191 0.127605 0.277642 0.250861 0.150821 0.431912C0.0239991 0.612963 -0.025706 0.836978 0.0126399 1.05468L0.880973 5.97884C0.919614 6.19645 1.04311 6.38979 1.22431 6.51634C1.34238 6.59552 1.47726 6.64615 1.61827 6.66423C1.75929 6.68231 1.90257 6.66734 2.03681 6.62051L6.77014 5.78634C6.98784 5.748 7.18139 5.62474 7.30821 5.44369C7.43503 5.26264 7.48474 5.03862 7.44639 4.82093C7.40804 4.60323 7.28479 4.40968 7.10374 4.28286C6.92269 4.15604 6.69867 4.10633 6.48097 4.14468L3.15681 4.73134Z" fill="white"/>
</svg>
