<svg width="24" height="22" viewBox="0 0 24 22" fill="none" xmlns="http://www.w3.org/2000/svg">
<path d="M15.0155 0.134766C10.2333 0.134766 6.35693 4.01112 6.35693 8.79375C6.35693 13.5388 10.1743 17.3902 14.9049 17.4497V21.1333L20.8215 15.2172C22.5737 13.6327 23.6749 11.3417 23.6749 8.79375C23.674 4.01112 19.7972 0.134766 15.0155 0.134766Z" fill="white"/>
<path d="M7.75327 17.1619V16.111L6.89025 16.1005C4.42662 16.0699 2.42268 14.0406 2.42268 11.5765C2.42268 9.54682 3.76549 7.82517 5.60906 7.25317C5.71612 6.59859 5.89047 5.9663 6.12425 5.36328C3.0541 5.76835 0.674805 8.39672 0.674805 11.5761C0.674805 14.6987 2.9973 17.3183 6.00539 17.7767V21.3808L10.3187 17.0675C9.80265 16.7721 9.31718 16.4313 8.86666 16.0485L7.75327 17.1619Z" fill="white"/>
</svg>
