<svg width="22" height="22" viewBox="0 0 22 22" fill="none" xmlns="http://www.w3.org/2000/svg">
<path d="M20.0956 21.4688C17.8836 21.4688 15.6156 20.9149 13.2916 19.8071C10.9676 18.6994 8.80856 17.1441 6.81444 15.1412C4.82031 13.1383 3.26937 10.9792 2.16162 8.664C1.05387 6.34875 0.5 4.08513 0.5 1.87313C0.5 1.47238 0.63125 1.13856 0.89375 0.871688C1.15625 0.604813 1.48438 0.4705 1.87813 0.46875H5.12394C5.48094 0.46875 5.79244 0.581187 6.05844 0.806062C6.32444 1.03094 6.50425 1.31925 6.59787 1.671L7.24888 4.8C7.31012 5.1675 7.29919 5.48819 7.21606 5.76206C7.13294 6.03594 6.98725 6.26037 6.779 6.43537L3.89938 9.12075C4.43838 10.0981 5.03381 11.0064 5.68569 11.8455C6.33756 12.6846 7.03319 13.4796 7.77256 14.2303C8.53381 14.9916 9.35369 15.7003 10.2322 16.3566C11.1107 17.0119 12.0749 17.6306 13.1249 18.2124L15.9324 15.3551C16.1459 15.125 16.3861 14.9732 16.6529 14.8997C16.9189 14.8271 17.2138 14.8126 17.5376 14.8564L20.2977 15.4208C20.6547 15.5083 20.9444 15.6881 21.1666 15.9602C21.3889 16.2323 21.5 16.5438 21.5 16.8947V20.0906C21.5 20.4844 21.3661 20.8125 21.0984 21.075C20.8306 21.3375 20.4955 21.4688 20.0956 21.4688ZM3.2825 7.88963L5.8025 5.57306C5.88562 5.50569 5.93987 5.41294 5.96525 5.29481C5.9915 5.17669 5.98712 5.06731 5.95213 4.96669L5.37069 2.18419C5.33656 2.05031 5.2775 1.94969 5.1935 1.88231C5.1095 1.81494 5.00056 1.78125 4.86669 1.78125H2.17344C2.07281 1.78125 1.98881 1.81494 1.92144 1.88231C1.85406 1.94969 1.82038 2.03369 1.82038 2.13431C1.84575 3.03119 1.98619 3.96744 2.24169 4.94306C2.49719 5.91869 2.84325 6.90088 3.2825 7.88963ZM14.3744 18.828C15.2617 19.2673 16.2067 19.5923 17.2094 19.8032C18.2139 20.0132 19.0889 20.1256 19.8344 20.1405C19.9351 20.1405 20.0191 20.1068 20.0864 20.0394C20.1538 19.9721 20.1875 19.8885 20.1875 19.7887V17.1532C20.1875 17.0194 20.1538 16.91 20.0864 16.8251C20.0191 16.7411 19.9184 16.6825 19.7846 16.6492L17.3564 16.1518C17.2549 16.1177 17.1661 16.1133 17.09 16.1387C17.0147 16.1649 16.9351 16.2196 16.8511 16.3027L14.3744 18.828Z" fill="white"/>
</svg>
