<svg width="22" height="22" viewBox="0 0 22 22" fill="none" xmlns="http://www.w3.org/2000/svg">
<path d="M12.6534 22.0022H9.34929C9.14649 22.0022 8.95085 21.9272 8.80008 21.7916C8.6493 21.656 8.55405 21.4694 8.53269 21.2677L8.28804 18.964C7.94651 18.8478 7.61286 18.7096 7.28918 18.5503L5.48905 20.0061C5.3315 20.133 5.13265 20.1973 4.93063 20.1866C4.72862 20.1759 4.53767 20.0909 4.39442 19.9481L2.05792 17.6116C1.91508 17.4683 1.83016 17.2774 1.81946 17.0754C1.80875 16.8734 1.87301 16.6745 1.9999 16.517L3.45631 14.7147C3.29671 14.391 3.15831 14.0574 3.04199 13.7158L0.734501 13.4695C0.532926 13.4481 0.346376 13.353 0.21077 13.2023C0.0751636 13.0517 8.85771e-05 12.8562 0 12.6534V9.34874C8.85771e-05 9.14604 0.0751636 8.95054 0.21077 8.79987C0.346376 8.64921 0.532926 8.55404 0.734501 8.53269L3.03816 8.28804C3.15448 7.94646 3.29288 7.61281 3.45248 7.28918L1.99607 5.48687C1.86918 5.32932 1.80492 5.13046 1.81563 4.92845C1.82633 4.72643 1.91125 4.53548 2.05408 4.39223L4.39059 2.05573C4.53384 1.91289 4.72479 1.82798 4.9268 1.81727C5.12882 1.80656 5.32767 1.87082 5.48522 1.99771L7.28754 3.45358C7.61122 3.29425 7.94487 3.15604 8.2864 3.03981L8.53105 0.736145C8.55206 0.533898 8.64737 0.346644 8.79854 0.210648C8.9497 0.074652 9.14595 -0.000408994 9.34929 1.67625e-06H12.6534C12.8562 -4.49048e-05 13.0519 0.0749693 13.2027 0.210589C13.3534 0.346208 13.4487 0.532834 13.47 0.734502L13.7141 3.03816C14.0559 3.15439 14.3897 3.29261 14.7136 3.45194L16.5153 1.99607C16.6729 1.86918 16.8717 1.80492 17.0737 1.81563C17.2758 1.82633 17.4667 1.91125 17.61 2.05409L19.9465 4.39059C20.0893 4.53384 20.1742 4.72479 20.1849 4.92681C20.1956 5.12882 20.1314 5.32767 20.0045 5.48522L18.5481 7.28754C18.7074 7.61127 18.8458 7.94491 18.9624 8.2864L21.266 8.53105C21.4675 8.55253 21.6539 8.64775 21.7894 8.7984C21.9249 8.94905 21.9999 9.14448 22 9.3471V12.6518C22.0004 12.8544 21.9259 13.0499 21.7908 13.2009C21.6557 13.3518 21.4696 13.4475 21.2682 13.4695L18.9646 13.7142C18.848 14.0556 18.7096 14.3893 18.5503 14.713L20.0067 16.5153C20.1336 16.6729 20.1978 16.8717 20.1871 17.0737C20.1764 17.2758 20.0915 17.4667 19.9487 17.61L17.6121 19.9481C17.4689 20.0909 17.2779 20.1759 17.0759 20.1866C16.8739 20.1973 16.6751 20.133 16.5175 20.0061L14.7157 18.5503C14.3919 18.7096 14.058 18.8478 13.7163 18.964L13.4722 21.2677C13.4508 21.4697 13.3553 21.6567 13.204 21.7923C13.0528 21.928 12.8566 22.0028 12.6534 22.0022ZM10.0865 20.3602H11.914L12.1379 18.2498C12.1554 18.0846 12.2227 17.9286 12.3308 17.8025C12.4389 17.6763 12.5827 17.5859 12.7432 17.5432C13.3215 17.389 13.8766 17.1584 14.3939 16.8574C14.5379 16.7735 14.7041 16.7354 14.8703 16.7482C15.0365 16.761 15.1949 16.8241 15.3244 16.9291L16.9751 18.2629L18.2673 16.9707L16.9313 15.3249C16.8263 15.1954 16.7632 15.0371 16.7504 14.8709C16.7376 14.7047 16.7757 14.5385 16.8596 14.3945C17.1599 13.8775 17.3898 13.3227 17.5432 12.7449C17.5859 12.5842 17.6764 12.4404 17.8027 12.3323C17.9289 12.2242 18.085 12.157 18.2503 12.1395L20.3602 11.9151V10.0876L18.2503 9.86322C18.085 9.84576 17.9289 9.77855 17.8027 9.67046C17.6764 9.56237 17.5859 9.41851 17.5432 9.25789C17.3899 8.67983 17.16 8.12487 16.8596 7.60772C16.7757 7.46369 16.7376 7.29753 16.7504 7.13133C16.7632 6.96512 16.8263 6.80675 16.9313 6.67728L18.2651 5.02657L16.9729 3.73435L15.3222 5.06817C15.1927 5.17317 15.0343 5.23627 14.8681 5.24907C14.7019 5.26188 14.5358 5.22379 14.3917 5.13987C13.8747 4.83976 13.3199 4.60987 12.7421 4.45627C12.5816 4.41356 12.4378 4.32316 12.3297 4.197C12.2216 4.07085 12.1543 3.91487 12.1368 3.74968L11.9151 1.64196H10.0865L9.86267 3.75241C9.84507 3.91768 9.77773 4.0737 9.66954 4.19987C9.56136 4.32603 9.41743 4.41639 9.25679 4.459C8.67942 4.61331 8.1252 4.84394 7.60882 5.14479C7.46479 5.22872 7.29862 5.26681 7.13242 5.254C6.96621 5.24119 6.80785 5.17809 6.67838 5.07309L5.02931 3.73709L3.73764 5.02931L5.072 6.68002C5.17691 6.80955 5.23991 6.96795 5.25262 7.13415C5.26533 7.30035 5.22715 7.46648 5.14315 7.61046C4.84328 8.12766 4.61341 8.68237 4.45955 9.26008C4.41684 9.42062 4.32644 9.56443 4.20028 9.6725C4.07413 9.78058 3.91815 9.84785 3.75296 9.86541L1.6425 10.0898V11.9168L3.75296 12.1412C3.91815 12.1587 4.07413 12.226 4.20028 12.3341C4.32644 12.4421 4.41684 12.586 4.45955 12.7465C4.61337 13.3236 4.84306 13.8778 5.1426 14.3945C5.2266 14.5384 5.26478 14.7046 5.25207 14.8708C5.23936 15.037 5.17636 15.1954 5.07145 15.3249L3.73764 16.9729L5.02985 18.2651L6.68111 16.9313C6.81058 16.8263 6.96895 16.7632 7.13516 16.7504C7.30136 16.7376 7.46752 16.7757 7.61155 16.8596C8.1284 17.1598 8.68298 17.3897 9.26062 17.5432C9.42126 17.5858 9.56519 17.6762 9.67337 17.8023C9.78156 17.9285 9.8489 18.0845 9.8665 18.2498L10.0865 20.3602Z" fill="white"/>
<path d="M11.0007 15.9986C10.0118 15.9985 9.04508 15.7052 8.22286 15.1557C7.40064 14.6062 6.75982 13.8252 6.38145 12.9115C6.00307 11.9978 5.90413 10.9924 6.09712 10.0225C6.29012 9.05258 6.7664 8.16166 7.46573 7.46241C8.16505 6.76316 9.05602 6.28698 10.026 6.09409C10.9959 5.9012 12.0013 6.00025 12.9149 6.37873C13.8286 6.7572 14.6095 7.3981 15.1589 8.22039C15.7083 9.04267 16.0016 10.0094 16.0016 10.9983C16.0001 12.3242 15.4728 13.5952 14.5352 14.5327C13.5977 15.4701 12.3265 15.9973 11.0007 15.9986ZM11.0007 7.64C10.3365 7.64011 9.68729 7.83717 9.13508 8.20625C8.58288 8.57534 8.15252 9.09988 7.89841 9.71354C7.64431 10.3272 7.57789 11.0024 7.70753 11.6539C7.83717 12.3053 8.15707 12.9036 8.62676 13.3732C9.09646 13.8429 9.69486 14.1627 10.3463 14.2922C10.9977 14.4217 11.673 14.3552 12.2866 14.101C12.9002 13.8468 13.4247 13.4164 13.7937 12.8641C14.1627 12.3118 14.3596 11.6625 14.3596 10.9983C14.3586 10.1079 14.0044 9.25417 13.3747 8.62457C12.745 7.99496 11.8912 7.64087 11.0007 7.64Z" fill="white"/>
</svg>
