<svg width="24" height="23" viewBox="0 0 24 23" fill="none" xmlns="http://www.w3.org/2000/svg">
<path d="M18.5694 22.4275C18.4279 22.428 18.2884 22.3938 18.1633 22.3278L12 19.0866L5.83565 22.3278C5.69198 22.4029 5.53018 22.4364 5.36848 22.4246C5.20678 22.4127 5.05162 22.3558 4.92049 22.2605C4.78936 22.1651 4.68748 22.035 4.62634 21.8848C4.5652 21.7347 4.54723 21.5704 4.57446 21.4106L5.75211 14.5466L0.763048 9.68514C0.646702 9.57182 0.564388 9.42821 0.52542 9.27054C0.486452 9.11288 0.492384 8.94746 0.542545 8.79299C0.592707 8.63852 0.685096 8.50117 0.80926 8.39648C0.933424 8.29179 1.08441 8.22394 1.24513 8.2006L8.13758 7.19931L11.2198 0.953699C11.2916 0.808127 11.4028 0.685564 11.5407 0.599865C11.6786 0.514166 11.8377 0.46875 12 0.46875C12.1624 0.46875 12.3215 0.514166 12.4594 0.599865C12.5973 0.685564 12.7084 0.808127 12.7803 0.953699L15.8625 7.19931L22.7544 8.2006C22.9151 8.22385 23.0662 8.29164 23.1904 8.39629C23.3147 8.50094 23.4071 8.63828 23.4574 8.79277C23.5076 8.94725 23.5136 9.11271 23.4746 9.27042C23.4357 9.42812 23.3534 9.57178 23.237 9.68514L18.248 14.5466L19.4256 21.4106C19.447 21.5354 19.4408 21.6635 19.4076 21.7857C19.3744 21.9079 19.3148 22.0214 19.2332 22.1183C19.1515 22.2151 19.0497 22.293 18.9349 22.3464C18.82 22.3998 18.6949 22.4275 18.5682 22.4275H18.5694ZM3.24018 9.66947L7.29234 13.6195C7.3931 13.7178 7.46854 13.8389 7.51219 13.9727C7.55584 14.1065 7.56639 14.2489 7.54295 14.3876L6.58633 19.9649L11.594 17.3335C11.7191 17.2674 11.8585 17.2329 12 17.2329C12.1416 17.2329 12.281 17.2674 12.4061 17.3335L17.4149 19.9667L16.4571 14.3876C16.4333 14.2486 16.4436 14.106 16.4872 13.9719C16.5307 13.8378 16.6062 13.7163 16.7072 13.6178L20.7599 9.66947L15.16 8.8573C15.0204 8.83701 14.8879 8.78311 14.7738 8.70024C14.6597 8.61738 14.5675 8.50802 14.505 8.3816L12 3.30726L9.49565 8.3816C9.43313 8.5081 9.3408 8.6175 9.2266 8.70037C9.11239 8.78324 8.97975 8.8371 8.84011 8.8573L3.24018 9.66947Z" fill="white"/>
</svg>
