<svg width="14" height="15" viewBox="0 0 14 15" fill="none" xmlns="http://www.w3.org/2000/svg">
<path d="M8.6365 5.41202L5.91771 8.22339L4.87202 7.14461C4.81521 7.07617 4.74529 7.02058 4.66667 6.98134C4.58804 6.94209 4.5024 6.92004 4.41512 6.91656C4.32784 6.91308 4.24081 6.92826 4.15948 6.96113C4.07816 6.994 4.00429 7.04385 3.94253 7.10757C3.88077 7.17129 3.83244 7.24749 3.80058 7.33139C3.76872 7.41529 3.75401 7.50507 3.75738 7.59512C3.76076 7.68516 3.78213 7.77351 3.82017 7.85463C3.85821 7.93574 3.91209 8.00787 3.97843 8.06648L5.46775 9.60947C5.52696 9.67006 5.59719 9.718 5.67441 9.75054C5.75162 9.78308 5.8343 9.79957 5.91771 9.79907C6.08397 9.79835 6.24329 9.73025 6.36133 9.60947L9.53008 6.34042C9.58948 6.27964 9.63663 6.20733 9.66881 6.12766C9.70098 6.04799 9.71755 5.96253 9.71755 5.87622C9.71755 5.78991 9.70098 5.70445 9.66881 5.62478C9.63663 5.54511 9.58948 5.4728 9.53008 5.41202C9.41134 5.29024 9.25072 5.22189 9.08329 5.22189C8.91586 5.22189 8.75524 5.29024 8.6365 5.41202ZM6.9127 0.972656C5.65926 0.972656 4.43397 1.35611 3.39177 2.07452C2.34957 2.79294 1.53728 3.81405 1.05761 5.00872C0.577941 6.2034 0.452438 7.51799 0.696971 8.78626C0.941505 10.0545 1.54509 11.2195 2.43141 12.1339C3.31772 13.0482 4.44696 13.6709 5.67631 13.9232C6.90567 14.1755 8.17993 14.046 9.33795 13.5511C10.496 13.0563 11.4858 12.2183 12.1821 11.1431C12.8785 10.0679 13.2502 8.80385 13.2502 7.51074C13.2502 6.65215 13.0863 5.80196 12.7678 5.00872C12.4493 4.21549 11.9825 3.49473 11.394 2.88762C10.8055 2.2805 10.1069 1.79891 9.33795 1.47034C8.56905 1.14177 7.74495 0.972656 6.9127 0.972656ZM6.9127 12.7412C5.90995 12.7412 4.92971 12.4344 4.09596 11.8597C3.2622 11.285 2.61236 10.4681 2.22863 9.51235C1.84489 8.55661 1.74449 7.50494 1.94012 6.49033C2.13574 5.47572 2.61861 4.54374 3.32767 3.81224C4.03672 3.08075 4.94011 2.58259 5.92359 2.38078C6.90707 2.17896 7.92648 2.28254 8.8529 2.67842C9.77932 3.0743 10.5711 3.7447 11.1282 4.60485C11.6853 5.46499 11.9827 6.47625 11.9827 7.51074C11.9827 8.89795 11.4485 10.2283 10.4977 11.2092C9.54692 12.1901 8.25734 12.7412 6.9127 12.7412Z" fill="#6563FF"/>
</svg>
