<svg width="15" height="15" viewBox="0 0 15 15" fill="none" xmlns="http://www.w3.org/2000/svg">
<path d="M14.6349 13.6768L10.6074 9.51819C11.3468 8.56472 11.7911 7.35088 11.7911 6.03069C11.7911 2.94658 9.37037 0.449219 6.38799 0.449219C3.40205 0.449219 0.984863 2.95025 0.984863 6.03069C0.984863 9.11113 3.40561 11.6122 6.38799 11.6122C7.67478 11.6122 8.85494 11.1464 9.78271 10.3727L13.8066 14.5312L14.6349 13.6768ZM2.96838 9.56587C2.05482 8.6234 1.55361 7.36922 1.55361 6.03436C1.55361 4.6995 2.05838 3.44532 2.96838 2.50285C3.87838 1.56038 5.09764 1.03597 6.38799 1.03597C7.67834 1.03597 8.89404 1.55671 9.8076 2.49918C10.7212 3.44165 11.2224 4.69583 11.2224 6.03069C11.2224 7.36555 10.7176 8.61973 9.8076 9.5622C8.89404 10.5047 7.67834 11.0254 6.38799 11.0254C5.09764 11.0291 3.88193 10.5083 2.96838 9.56587Z" fill="white"/>
</svg>
