<svg width="13" height="13" viewBox="0 0 13 13" fill="none" xmlns="http://www.w3.org/2000/svg">
<path d="M1.54232 11.459H2.32007L9.89782 3.88125L9.12007 3.1035L1.54232 10.6812V11.459ZM0.833984 12.1673V10.3823L10.1698 1.038C10.243 0.973301 10.3233 0.923245 10.4107 0.887829C10.498 0.852412 10.5894 0.834467 10.6848 0.833995C10.7802 0.833523 10.8722 0.848634 10.961 0.879329C11.0507 0.909079 11.1334 0.962912 11.2089 1.04083L11.9647 1.80158C12.0427 1.87666 12.096 1.9593 12.1248 2.0495C12.1532 2.13922 12.1673 2.22894 12.1673 2.31866C12.1673 2.415 12.1513 2.50708 12.1192 2.59491C12.0866 2.68227 12.0351 2.76231 11.9647 2.83504L2.61828 12.1673H0.833984ZM9.50257 3.49875L9.12007 3.1035L9.89782 3.88125L9.50257 3.49875Z" fill="white"/>
</svg>
