<svg width="10" height="12" viewBox="0 0 10 12" fill="none" xmlns="http://www.w3.org/2000/svg">
<path d="M9.60688 3.58063L6.54438 0.518125C6.4829 0.456572 6.39949 0.421952 6.3125 0.421875H1.0625C0.859444 0.421875 0.664704 0.502539 0.521121 0.646121C0.377539 0.789704 0.296875 0.984444 0.296875 1.1875V10.8125C0.296875 11.0156 0.377539 11.2103 0.521121 11.3539C0.664704 11.4975 0.859444 11.5781 1.0625 11.5781H8.9375C9.14056 11.5781 9.3353 11.4975 9.47888 11.3539C9.62246 11.2103 9.70312 11.0156 9.70312 10.8125V3.8125C9.70305 3.72551 9.66843 3.6421 9.60688 3.58063ZM6.64062 1.54188L8.58313 3.48438H6.64062V1.54188ZM8.9375 10.9219H1.0625C1.03349 10.9219 1.00567 10.9104 0.98516 10.8898C0.964648 10.8693 0.953125 10.8415 0.953125 10.8125V1.1875C0.953125 1.15849 0.964648 1.13067 0.98516 1.11016C1.00567 1.08965 1.03349 1.07812 1.0625 1.07812H5.98438V3.8125C5.98438 3.89952 6.01894 3.98298 6.08048 4.04452C6.14202 4.10605 6.22548 4.14062 6.3125 4.14062H9.04688V10.8125C9.04688 10.8415 9.03535 10.8693 9.01484 10.8898C8.99433 10.9104 8.96651 10.9219 8.9375 10.9219Z" fill="white"/>
</svg>
