<svg width="25" height="21" viewBox="0 0 25 21" fill="none" xmlns="http://www.w3.org/2000/svg">
<path d="M13.5882 12.3529C14.8987 12.3529 16.1555 12.8735 17.0822 13.8002C18.0088 14.7268 18.5294 15.9836 18.5294 17.2941V19.1471C18.5294 19.6385 18.3342 20.1098 17.9867 20.4573C17.6392 20.8048 17.1679 21 16.6765 21H1.85294C1.36151 21 0.890208 20.8048 0.542714 20.4573C0.19522 20.1098 0 19.6385 0 19.1471V17.2941C0 15.9836 0.520587 14.7268 1.44724 13.8002C2.37389 12.8735 3.63069 12.3529 4.94118 12.3529H13.5882ZM21 12.3529C21.9829 12.3529 22.9255 12.7434 23.6205 13.4384C24.3154 14.1334 24.7059 15.076 24.7059 16.0588V17.9118C24.7059 18.4032 24.5107 18.8745 24.1632 19.222C23.8157 19.5695 23.3444 19.7647 22.8529 19.7647H21V17.2941C21.0008 16.3351 20.7779 15.3892 20.349 14.5314C19.9201 13.6736 19.2971 12.9277 18.5294 12.3529H21ZM9.26471 0C10.739 0 12.1529 0.58566 13.1954 1.62814C14.2379 2.67062 14.8235 4.08453 14.8235 5.55882C14.8235 7.03311 14.2379 8.44702 13.1954 9.4895C12.1529 10.532 10.739 11.1176 9.26471 11.1176C7.79041 11.1176 6.37651 10.532 5.33402 9.4895C4.29154 8.44702 3.70588 7.03311 3.70588 5.55882C3.70588 4.08453 4.29154 2.67062 5.33402 1.62814C6.37651 0.58566 7.79041 0 9.26471 0ZM19.7647 3.70588C20.7476 3.70588 21.6902 4.09632 22.3852 4.79131C23.0801 5.4863 23.4706 6.4289 23.4706 7.41176C23.4706 8.39463 23.0801 9.33723 22.3852 10.0322C21.6902 10.7272 20.7476 11.1176 19.7647 11.1176C18.7818 11.1176 17.8392 10.7272 17.1443 10.0322C16.4493 9.33723 16.0588 8.39463 16.0588 7.41176C16.0588 6.4289 16.4493 5.4863 17.1443 4.79131C17.8392 4.09632 18.7818 3.70588 19.7647 3.70588Z" fill="#C6C1C1"/>
</svg>
