<svg width="14" height="14" viewBox="0 0 14 14" fill="none" xmlns="http://www.w3.org/2000/svg">
<path d="M14 4.58008V10.7188C14 10.9512 13.9499 11.1608 13.8496 11.3477C13.7493 11.5345 13.6149 11.694 13.4463 11.8262C13.2777 11.9583 13.0908 12.0632 12.8857 12.1406C12.6807 12.2181 12.4688 12.2546 12.25 12.25C12.0358 12.25 11.8239 12.2135 11.6143 12.1406C11.4046 12.0677 11.2178 11.9652 11.0537 11.833C10.8896 11.7008 10.7575 11.5391 10.6572 11.3477C10.557 11.1562 10.5046 10.9466 10.5 10.7188C10.5 10.4863 10.5501 10.2767 10.6504 10.0898C10.7507 9.903 10.8851 9.74121 11.0537 9.60449C11.2223 9.46777 11.4092 9.36523 11.6143 9.29688C11.8193 9.22852 12.0312 9.19206 12.25 9.1875C12.5508 9.1875 12.8424 9.25814 13.125 9.39941V5.70117L8.75 6.79492V11.5938C8.75 11.8262 8.69987 12.0358 8.59961 12.2227C8.49935 12.4095 8.36491 12.569 8.19629 12.7012C8.02767 12.8333 7.84082 12.9382 7.63574 13.0156C7.43066 13.0931 7.21875 13.1296 7 13.125C6.78581 13.125 6.57389 13.0885 6.36426 13.0156C6.15462 12.9427 5.96777 12.8402 5.80371 12.708C5.63965 12.5758 5.50749 12.4141 5.40723 12.2227C5.30697 12.0312 5.25456 11.8216 5.25 11.5938C5.25 11.3613 5.30013 11.1517 5.40039 10.9648C5.50065 10.778 5.63509 10.6162 5.80371 10.4795C5.97233 10.3428 6.15918 10.2402 6.36426 10.1719C6.56934 10.1035 6.78125 10.0671 7 10.0625C7.30078 10.0625 7.59245 10.1331 7.875 10.2744V6.11133L14 4.58008ZM7 12.25C7.09115 12.25 7.18685 12.2363 7.28711 12.209C7.38737 12.1816 7.48307 12.1406 7.57422 12.0859C7.66536 12.0312 7.736 11.9629 7.78613 11.8809C7.83626 11.7988 7.86589 11.7031 7.875 11.5938C7.875 11.4844 7.84766 11.3887 7.79297 11.3066C7.73828 11.2246 7.66536 11.1562 7.57422 11.1016C7.48307 11.0469 7.38965 11.0059 7.29395 10.9785C7.19824 10.9512 7.10026 10.9375 7 10.9375C6.90885 10.9375 6.81315 10.9512 6.71289 10.9785C6.61263 11.0059 6.51693 11.0469 6.42578 11.1016C6.33464 11.1562 6.264 11.2246 6.21387 11.3066C6.16374 11.3887 6.13411 11.4844 6.125 11.5938C6.125 11.7031 6.15234 11.7988 6.20703 11.8809C6.26172 11.9629 6.33464 12.0312 6.42578 12.0859C6.51693 12.1406 6.61035 12.1816 6.70605 12.209C6.80176 12.2363 6.89974 12.25 7 12.25ZM12.25 11.375C12.3411 11.375 12.4368 11.3613 12.5371 11.334C12.6374 11.3066 12.7331 11.2656 12.8242 11.2109C12.9154 11.1562 12.986 11.0879 13.0361 11.0059C13.0863 10.9238 13.1159 10.8281 13.125 10.7188C13.125 10.6094 13.0977 10.5137 13.043 10.4316C12.9883 10.3496 12.9154 10.2812 12.8242 10.2266C12.7331 10.1719 12.6396 10.1309 12.5439 10.1035C12.4482 10.0762 12.3503 10.0625 12.25 10.0625C12.1589 10.0625 12.0632 10.0762 11.9629 10.1035C11.8626 10.1309 11.7669 10.1719 11.6758 10.2266C11.5846 10.2812 11.514 10.3496 11.4639 10.4316C11.4137 10.5137 11.3841 10.6094 11.375 10.7188C11.375 10.8281 11.4023 10.9238 11.457 11.0059C11.5117 11.0879 11.5846 11.1562 11.6758 11.2109C11.7669 11.2656 11.8604 11.3066 11.9561 11.334C12.0518 11.3613 12.1497 11.375 12.25 11.375ZM2.625 4.375H1.75V3.5H2.625V4.375ZM1.75 5.25H2.625V6.125H1.75V5.25ZM7.875 3.5H8.75V4.375H7.875V3.5ZM7 8.75H0V0.875H10.5V4.375L9.625 4.59375V1.75H8.75V2.625H7.875V1.75H2.625V2.625H1.75V1.75H0.875V7.875H1.75V7H2.625V7.875H7V8.75Z" fill="white"/>
</svg>
