<svg width="14" height="12" viewBox="0 0 14 12" fill="none" xmlns="http://www.w3.org/2000/svg">
<path d="M0.582031 10.6667V10.0833C0.582031 9.00037 1.01224 7.96175 1.77801 7.19598C2.54379 6.43021 3.5824 6 4.66536 6C5.74833 6 6.78694 6.43021 7.55272 7.19598C8.31849 7.96175 8.7487 9.00037 8.7487 10.0833V10.6667" stroke="white" stroke-width="1.25" stroke-linecap="round"/>
<path d="M7.58203 7.16667C7.58203 6.39312 7.88932 5.65125 8.4363 5.10427C8.98328 4.55729 9.72515 4.25 10.4987 4.25C10.8817 4.25 11.261 4.32544 11.6149 4.47202C11.9687 4.61859 12.2903 4.83343 12.5611 5.10427C12.8319 5.37511 13.0468 5.69664 13.1933 6.05051C13.3399 6.40437 13.4154 6.78364 13.4154 7.16667V7.45833" stroke="white" stroke-width="1.25" stroke-linecap="round"/>
<path d="M4.66536 6C5.2842 6 5.8777 5.75417 6.31528 5.31658C6.75287 4.879 6.9987 4.28551 6.9987 3.66667C6.9987 3.04783 6.75287 2.45434 6.31528 2.01675C5.8777 1.57917 5.2842 1.33333 4.66536 1.33333C4.04653 1.33333 3.45303 1.57917 3.01545 2.01675C2.57786 2.45434 2.33203 3.04783 2.33203 3.66667C2.33203 4.28551 2.57786 4.879 3.01545 5.31658C3.45303 5.75417 4.04653 6 4.66536 6ZM10.4987 4.25C10.9628 4.25 11.4079 4.06563 11.7361 3.73744C12.0643 3.40925 12.2487 2.96413 12.2487 2.5C12.2487 2.03587 12.0643 1.59075 11.7361 1.26256C11.4079 0.934375 10.9628 0.75 10.4987 0.75C10.0346 0.75 9.58945 0.934375 9.26126 1.26256C8.93307 1.59075 8.7487 2.03587 8.7487 2.5C8.7487 2.96413 8.93307 3.40925 9.26126 3.73744C9.58945 4.06563 10.0346 4.25 10.4987 4.25Z" stroke="white" stroke-width="1.25" stroke-linecap="round" stroke-linejoin="round"/>
</svg>
