<svg width="14" height="12" viewBox="0 0 14 12" fill="none" xmlns="http://www.w3.org/2000/svg">
<path d="M7.6875 0.375L4.3125 3.75H0.9375V8.25H4.3125L7.6875 11.625V0.375ZM9.49664 1.3477L9.33281 1.95896C11.1633 2.44939 12.4336 4.1049 12.4336 6C12.4336 7.8951 11.1633 9.55057 9.33281 10.041L9.49664 10.6523C11.6007 10.0885 13.0664 8.17835 13.0664 6C13.0664 3.82161 11.6007 1.9115 9.49664 1.3477ZM9.05982 2.97772L8.89607 3.58898C9.98883 3.88177 10.7461 4.86874 10.7461 6C10.7461 7.13126 9.98883 8.11823 8.89607 8.41102L9.05982 9.02228C10.4262 8.65613 11.3789 7.41458 11.3789 6C11.3789 4.58542 10.4262 3.34388 9.05982 2.97772ZM8.62304 4.60767L8.45932 5.21893C8.81426 5.3141 9.05859 5.63251 9.05859 6C9.05859 6.36749 8.81426 6.6859 8.45929 6.78107L8.62304 7.39233C9.25178 7.22386 9.69144 6.65088 9.69144 6C9.69144 5.34912 9.25178 4.77614 8.62304 4.60767Z" fill="white"/>
</svg>
