<svg width="12" height="12" viewBox="0 0 12 12" fill="none" xmlns="http://www.w3.org/2000/svg">
<path d="M11.0276 1.04976C10.8362 0.848421 10.6063 0.687431 10.3517 0.576273C10.0971 0.465114 9.82277 0.406034 9.54495 0.402511C9.26713 0.398989 8.99141 0.451095 8.73404 0.555762C8.47667 0.660429 8.24284 0.81554 8.04633 1.01196L1.48383 7.57446C1.25451 7.80381 1.09524 8.09371 1.02463 8.41026L0.41073 11.1753C0.39792 11.2327 0.399811 11.2925 0.416227 11.349C0.432644 11.4056 0.463056 11.457 0.504649 11.4987C0.546242 11.5404 0.597673 11.5709 0.654181 11.5874C0.710689 11.6039 0.770449 11.6059 0.82793 11.5932L3.57683 10.9821C3.90429 10.9099 4.20411 10.7451 4.44063 10.5075L10.9912 3.95686C11.3752 3.57273 11.5939 3.05379 11.6007 2.51071C11.6075 1.96763 11.4019 1.44338 11.0276 1.04976ZM8.54123 1.50686C8.66927 1.37697 8.82174 1.2737 8.98987 1.203C9.15799 1.1323 9.33845 1.09556 9.52083 1.09491C9.70322 1.09426 9.88393 1.1297 10.0526 1.19919C10.2212 1.26868 10.3744 1.37086 10.5034 1.49983C10.6323 1.62879 10.7345 1.782 10.804 1.95063C10.8735 2.11926 10.9089 2.29997 10.9083 2.48236C10.9076 2.66474 10.8709 2.8452 10.8002 3.01332C10.7295 3.18145 10.6262 3.33392 10.4963 3.46196L10.0266 3.93166L8.07153 1.97726L8.54123 1.50686ZM7.57663 2.47286L9.53173 4.42726L3.94573 10.0133C3.80332 10.1569 3.62248 10.2563 3.42493 10.2996L1.21293 10.791L1.70853 8.56286C1.74983 8.37596 1.84363 8.20516 1.97873 8.07006L7.57663 2.47286Z" fill="white"/>
</svg>
