<svg width="12" height="12" viewBox="0 0 12 12" fill="none" xmlns="http://www.w3.org/2000/svg">
<path d="M7.61508 1.30986L7.61392 1.30694C7.57836 1.15364 7.53593 1.00201 7.48675 0.852524C7.41092 0.622691 7.60925 0.385857 7.83792 0.461691C8.00708 0.517691 8.17333 0.581469 8.33667 0.653024L8.3425 0.655941C9.56885 1.19407 10.5727 2.13771 11.1857 3.32844C11.7986 4.51917 11.9832 5.88451 11.7085 7.19527C11.4339 8.50602 10.7167 9.68239 9.67729 10.5269C8.6379 11.3714 7.33964 11.8327 6.00042 11.8332C4.86667 11.8336 3.75738 11.5036 2.80821 10.8835C1.85903 10.2635 1.11111 9.38029 0.655915 8.34194L0.653582 8.33611C0.582024 8.17288 0.517985 8.00645 0.461665 7.83736C0.385832 7.60869 0.623248 7.41036 0.852498 7.48619C1.00261 7.53519 1.15428 7.57758 1.3075 7.61336L1.30983 7.61452C2.07996 7.79375 2.88062 7.79671 3.65205 7.62317C4.42348 7.44963 5.14574 7.10409 5.76493 6.61233C6.38411 6.12057 6.88422 5.4953 7.22792 4.7832C7.57162 4.0711 7.75003 3.29056 7.74983 2.49986C7.75045 2.09935 7.70524 1.70009 7.61508 1.30986ZM8.62542 2.49986C8.62542 5.88261 5.88317 8.62486 2.50042 8.62486C2.25153 8.62486 2.00653 8.61027 1.76542 8.58111C2.15652 9.22122 2.68777 9.76424 3.31915 10.1693C3.95053 10.5743 4.66559 10.8308 5.41046 10.9195C6.15534 11.0082 6.91063 10.9266 7.61944 10.6811C8.32826 10.4356 8.97212 10.0324 9.50255 9.50199C10.033 8.97156 10.4361 8.3277 10.6817 7.61888C10.9272 6.91007 11.0087 6.15479 10.9201 5.40991C10.8314 4.66503 10.5749 3.94997 10.1698 3.31859C9.7648 2.68721 9.22177 2.15597 8.58167 1.76486C8.61083 2.00597 8.62542 2.25136 8.62542 2.49986Z" fill="white"/>
</svg>
