<svg width="22" height="22" viewBox="0 0 22 22" fill="none" xmlns="http://www.w3.org/2000/svg">
<path d="M3.66797 16.5003C3.66797 15.5279 4.05428 14.9865 4.74191 14.2989C5.42954 13.6113 6.36217 13.2249 7.33464 13.2249L11.0013 13.0293L14.668 13.2251C15.6404 13.2251 16.5731 13.6114 17.2607 14.299C17.9483 14.9867 18.3346 15.5279 18.3346 16.5003C18.3346 16.9865 18.1415 17.4529 17.7977 17.7967C17.4538 18.1405 16.9875 18.3337 16.5013 18.3337H5.5013C5.01507 18.3337 4.54876 18.1405 4.20494 17.7967C3.86112 17.4529 3.66797 16.9865 3.66797 16.5003Z" stroke="white" stroke-width="0.833333" stroke-linejoin="round"/>
<path d="M11.0039 10.2676C12.5227 10.2676 13.7539 9.03636 13.7539 7.51758C13.7539 5.9988 12.5227 4.76758 11.0039 4.76758C9.48512 4.76758 8.25391 5.9988 8.25391 7.51758C8.25391 9.03636 9.48512 10.2676 11.0039 10.2676Z" stroke="white" stroke-width="0.833333"/>
<path fill-rule="evenodd" clip-rule="evenodd" d="M18 16C20.2091 16 22 14.2091 22 12C22 9.79086 20.2091 8 18 8C15.7909 8 14 9.79086 14 12C14 14.2091 15.7909 16 18 16ZM18.3024 12.238H19.5804V11.776H18.3024V10.474H17.7924V11.776H16.5204V12.238H17.7924V13.534H18.3024V12.238Z" fill="#D9D9D9"/>
</svg>
