<svg width="16" height="8" viewBox="0 0 16 8" fill="none" xmlns="http://www.w3.org/2000/svg">
<path d="M5.33203 4.00065H10.6654M5.9987 1.33398H3.9987C3.29145 1.33398 2.61318 1.61494 2.11308 2.11503C1.61298 2.61513 1.33203 3.29341 1.33203 4.00065C1.33203 4.70789 1.61298 5.38617 2.11308 5.88627C2.61318 6.38637 3.29145 6.66732 3.9987 6.66732H5.9987M9.9987 1.33398H11.9987C12.7059 1.33398 13.3842 1.61494 13.8843 2.11503C14.3844 2.61513 14.6654 3.29341 14.6654 4.00065C14.6654 4.70789 14.3844 5.38617 13.8843 5.88627C13.3842 6.38637 12.7059 6.66732 11.9987 6.66732H9.9987" stroke="white" stroke-width="0.833333" stroke-linecap="round" stroke-linejoin="round"/>
</svg>
