<svg width="14" height="14" viewBox="0 0 14 14" fill="none" xmlns="http://www.w3.org/2000/svg">
<path d="M13.0638 14C11.5891 14 10.0771 13.6307 8.52775 12.8922C6.97842 12.1537 5.53904 11.1169 4.20962 9.78162C2.88021 8.44637 1.84625 7.007 1.10775 5.4635C0.36925 3.92 0 2.41092 0 0.93625C0 0.669083 0.0875002 0.446542 0.2625 0.268625C0.4375 0.0907085 0.65625 0.00116667 0.91875 0H3.08262C3.32062 0 3.52829 0.0749583 3.70562 0.224875C3.88296 0.374792 4.00283 0.567 4.06525 0.8015L4.49925 2.8875C4.54008 3.1325 4.53279 3.34629 4.47737 3.52887C4.42196 3.71146 4.32483 3.86108 4.186 3.97775L2.26625 5.768C2.62558 6.41958 3.02254 7.02508 3.45713 7.5845C3.89171 8.14392 4.35546 8.67387 4.84838 9.17437C5.35588 9.68187 5.90246 10.1544 6.48812 10.5919C7.07379 11.0288 7.71663 11.4412 8.41663 11.8291L10.2882 9.92425C10.4306 9.77083 10.5907 9.66963 10.7686 9.62062C10.946 9.57221 11.1425 9.56258 11.3584 9.59175L13.1985 9.968C13.4365 10.0263 13.6296 10.1462 13.7778 10.3276C13.9259 10.509 14 10.7167 14 10.9506V13.0813C14 13.3438 13.9108 13.5625 13.7323 13.7375C13.5538 13.9125 13.3303 14 13.0638 14ZM1.855 4.94725L3.535 3.40287C3.59042 3.35796 3.62658 3.29612 3.6435 3.21738C3.661 3.13863 3.65808 3.06571 3.63475 2.99863L3.24712 1.14363C3.22438 1.05438 3.185 0.987292 3.129 0.942375C3.073 0.897458 3.00038 0.875 2.91113 0.875H1.11563C1.04854 0.875 0.992542 0.897458 0.947625 0.942375C0.902708 0.987292 0.88025 1.04329 0.88025 1.11038C0.897167 1.70829 0.990792 2.33246 1.16113 2.98287C1.33146 3.63329 1.56217 4.28808 1.855 4.94725ZM9.24963 12.2395C9.84113 12.5323 10.4711 12.749 11.1396 12.8896C11.8093 13.0296 12.3926 13.1046 12.8896 13.1145C12.9567 13.1145 13.0127 13.092 13.0576 13.0471C13.1025 13.0022 13.125 12.9465 13.125 12.88V11.123C13.125 11.0337 13.1025 10.9608 13.0576 10.9043C13.0127 10.8482 12.9456 10.8092 12.8564 10.787L11.2376 10.4554C11.17 10.4326 11.1107 10.4297 11.06 10.4466C11.0098 10.4641 10.9567 10.5006 10.9008 10.556L9.24963 12.2395Z" fill="white"/>
</svg>
