<svg width="17" height="17" viewBox="0 0 17 17" fill="none" xmlns="http://www.w3.org/2000/svg">
<path d="M8.49961 0.0996094C9.76813 0.100342 11.02 0.388365 12.1613 0.942064C13.3026 1.49576 14.3037 2.30076 15.0894 3.29663C15.8751 4.29251 16.4251 5.45342 16.698 6.69222C16.9709 7.93102 16.9598 9.21556 16.6653 10.4494C16.3709 11.6833 15.8008 12.8345 14.9979 13.8165C14.1949 14.7986 13.18 15.586 12.0293 16.1198C10.8785 16.6536 9.62182 16.9198 8.35348 16.8984C7.08514 16.8771 5.83811 16.5688 4.70596 15.9966L4.57891 15.9284L0.751659 16.8839C0.678003 16.9024 0.601205 16.9047 0.526565 16.8907C0.451925 16.8766 0.381221 16.8465 0.319331 16.8025C0.257441 16.7585 0.205839 16.7016 0.168086 16.6357C0.130333 16.5698 0.107328 16.4965 0.100659 16.4208V16.3347L0.115359 16.2476L1.07086 12.4214L1.00471 12.2954C0.525405 11.349 0.229693 10.3204 0.133209 9.26401L0.106959 8.86291L0.0996094 8.49961C0.0996094 6.27179 0.984607 4.13522 2.55991 2.55991C4.13522 0.984607 6.27179 0.0996094 8.49961 0.0996094ZM8.49961 1.14961C7.217 1.1494 5.95665 1.48484 4.84383 2.12258C3.731 2.76033 2.80444 3.67818 2.15621 4.78493C1.50797 5.89168 1.16065 7.14879 1.14873 8.43135C1.13682 9.71391 1.46074 10.9773 2.08831 12.0959C2.13703 12.1828 2.15998 12.2819 2.15446 12.3815L2.13976 12.4802L1.34596 15.6522L4.52116 14.8605C4.5857 14.8445 4.65269 14.841 4.71856 14.85L4.81411 14.8721L4.90546 14.913C5.88547 15.4616 6.97818 15.7784 8.09968 15.8389C9.22118 15.8995 10.3416 15.7022 11.375 15.2622C12.4084 14.8223 13.3272 14.1513 14.0609 13.301C14.7945 12.4506 15.3236 11.4434 15.6074 10.3567C15.8911 9.27001 15.9221 8.13274 15.6979 7.03222C15.4736 5.9317 15.0002 4.8972 14.3139 4.00817C13.6275 3.11913 12.7466 2.39921 11.7387 1.90368C10.7308 1.40815 9.62274 1.15019 8.49961 1.14961ZM9.02461 9.54961C9.1558 9.54937 9.28233 9.59825 9.37928 9.68664C9.47623 9.77503 9.53658 9.89651 9.54843 10.0272C9.56028 10.1578 9.52279 10.2882 9.44333 10.3926C9.36387 10.497 9.24821 10.5678 9.11911 10.5912L9.02461 10.5996H5.87461C5.74342 10.5999 5.61689 10.551 5.51994 10.4626C5.42299 10.3742 5.36264 10.2527 5.35079 10.122C5.33894 9.99139 5.37643 9.86103 5.45589 9.75664C5.53535 9.65224 5.65101 9.58138 5.78011 9.55801L5.87461 9.54961H9.02461ZM11.1246 6.39961C11.2558 6.39937 11.3823 6.44825 11.4793 6.53664C11.5762 6.62503 11.6366 6.74651 11.6484 6.87717C11.6603 7.00783 11.6228 7.13819 11.5433 7.24258C11.4639 7.34698 11.3482 7.41784 11.2191 7.44121L11.1246 7.44961H5.87461C5.74342 7.44985 5.61689 7.40096 5.51994 7.31258C5.42299 7.22419 5.36264 7.1027 5.35079 6.97205C5.33894 6.84139 5.37643 6.71103 5.45589 6.60664C5.53535 6.50224 5.65101 6.43138 5.78011 6.40801L5.87461 6.39961H11.1246Z" fill="white"/>
</svg>
