<svg width="16" height="15" viewBox="0 0 16 15" fill="none" xmlns="http://www.w3.org/2000/svg">
<path d="M13.0638 15C11.5891 15 10.0771 14.6307 8.52775 13.8922C6.97842 13.1537 5.53904 12.1169 4.20962 10.7816C2.88021 9.44637 1.84625 8.007 1.10775 6.4635C0.36925 4.92 0 3.41092 0 1.93625C0 1.66908 0.0875002 1.44654 0.2625 1.26863C0.4375 1.09071 0.65625 1.00117 0.91875 1H3.08262C3.32062 1 3.52829 1.07496 3.70562 1.22487C3.88296 1.37479 4.00283 1.567 4.06525 1.8015L4.49925 3.8875C4.54008 4.1325 4.53279 4.34629 4.47737 4.52887C4.42196 4.71146 4.32483 4.86108 4.186 4.97775L2.26625 6.768C2.62558 7.41958 3.02254 8.02508 3.45713 8.5845C3.89171 9.14392 4.35546 9.67387 4.84838 10.1744C5.35588 10.6819 5.90246 11.1544 6.48812 11.5919C7.07379 12.0288 7.71663 12.4412 8.41663 12.8291L10.2882 10.9242C10.4306 10.7708 10.5907 10.6696 10.7686 10.6206C10.946 10.5722 11.1425 10.5626 11.3584 10.5918L13.1985 10.968C13.4365 11.0263 13.6296 11.1462 13.7778 11.3276C13.9259 11.509 14 11.7167 14 11.9506V14.0813C14 14.3438 13.9108 14.5625 13.7323 14.7375C13.5538 14.9125 13.3303 15 13.0638 15ZM1.855 5.94725L3.535 4.40287C3.59042 4.35796 3.62658 4.29612 3.6435 4.21738C3.661 4.13863 3.65808 4.06571 3.63475 3.99863L3.24712 2.14363C3.22438 2.05438 3.185 1.98729 3.129 1.94238C3.073 1.89746 3.00038 1.875 2.91113 1.875H1.11563C1.04854 1.875 0.992542 1.89746 0.947625 1.94238C0.902708 1.98729 0.88025 2.04329 0.88025 2.11038C0.897167 2.70829 0.990792 3.33246 1.16113 3.98287C1.33146 4.63329 1.56217 5.28808 1.855 5.94725ZM9.24963 13.2395C9.84113 13.5323 10.4711 13.749 11.1396 13.8896C11.8093 14.0296 12.3926 14.1046 12.8896 14.1145C12.9567 14.1145 13.0127 14.092 13.0576 14.0471C13.1025 14.0022 13.125 13.9465 13.125 13.88V12.123C13.125 12.0337 13.1025 11.9608 13.0576 11.9043C13.0127 11.8482 12.9456 11.8092 12.8564 11.787L11.2376 11.4554C11.17 11.4326 11.1107 11.4297 11.06 11.4466C11.0098 11.4641 10.9567 11.5006 10.9008 11.556L9.24963 13.2395Z" fill="white"/>
<path d="M9 4H15" stroke="white" stroke-linecap="round"/>
<path d="M12 1L12 7" stroke="white" stroke-linecap="round"/>
</svg>
