<svg width="13" height="13" viewBox="0 0 13 13" fill="none" xmlns="http://www.w3.org/2000/svg">
<path d="M12.4239 0.927243C12.4239 0.706329 12.2448 0.527243 12.0239 0.527243L8.42393 0.527243C8.20301 0.527243 8.02393 0.706329 8.02393 0.927243C8.02393 1.14816 8.20301 1.32724 8.42393 1.32724H11.6239V4.52724C11.6239 4.74816 11.803 4.92724 12.0239 4.92724C12.2448 4.92724 12.4239 4.74816 12.4239 4.52724L12.4239 0.927243ZM7.71058 5.80628L12.3068 1.21009L11.7411 0.6444L7.14489 5.24059L7.71058 5.80628Z" fill="white"/>
<path d="M12.1306 13C10.7613 13 9.35729 12.6571 7.91863 11.9714C6.47996 11.2856 5.1434 10.3228 3.90894 9.08294C2.67448 7.84306 1.71437 6.5065 1.02862 5.07325C0.342875 3.64 0 2.23871 0 0.869375C0 0.621292 0.0812502 0.414646 0.24375 0.249438C0.40625 0.0842293 0.609375 0.00108333 0.853125 0H2.86244C3.08344 0 3.27627 0.0696041 3.44094 0.208812C3.6056 0.348021 3.71692 0.5265 3.77487 0.74425L4.17788 2.68125C4.21579 2.90875 4.20902 3.10727 4.15756 3.27681C4.1061 3.44635 4.01592 3.58529 3.887 3.69362L2.10438 5.356C2.43804 5.96104 2.80665 6.52329 3.21019 7.04275C3.61373 7.56221 4.04435 8.05431 4.50206 8.51906C4.97331 8.99031 5.48085 9.42906 6.02469 9.83531C6.56852 10.241 7.16544 10.624 7.81544 10.9842L9.55338 9.21537C9.68554 9.07292 9.83423 8.97894 9.99944 8.93344C10.1641 8.88848 10.3466 8.87954 10.5471 8.90662L12.2557 9.256C12.4767 9.31017 12.656 9.42148 12.7936 9.58994C12.9312 9.7584 13 9.95123 13 10.1684V12.1469C13 12.3906 12.9171 12.5938 12.7514 12.7563C12.5856 12.9188 12.3782 13 12.1306 13ZM1.7225 4.59388L3.2825 3.15981C3.33396 3.1181 3.36754 3.06069 3.38325 2.98756C3.3995 2.91444 3.39679 2.84673 3.37513 2.78444L3.01519 1.06194C2.99406 0.979063 2.9575 0.916771 2.9055 0.875063C2.8535 0.833354 2.78606 0.8125 2.70319 0.8125H1.03594C0.973646 0.8125 0.921646 0.833354 0.879938 0.875063C0.838229 0.916771 0.817375 0.968771 0.817375 1.03106C0.833083 1.58627 0.920021 2.16585 1.07819 2.76981C1.23635 3.37377 1.45058 3.98179 1.7225 4.59388ZM8.58894 11.3653C9.13819 11.6372 9.72319 11.8384 10.3439 11.9689C10.9658 12.0989 11.5074 12.1685 11.9689 12.1778C12.0312 12.1778 12.0832 12.1569 12.1249 12.1152C12.1666 12.0735 12.1875 12.0217 12.1875 11.96V10.3285C12.1875 10.2456 12.1666 10.1779 12.1249 10.1254C12.0832 10.0734 12.0209 10.0371 11.9381 10.0165L10.4349 9.70856C10.3721 9.68744 10.3171 9.68473 10.27 9.70044C10.2234 9.71669 10.1741 9.75054 10.1221 9.802L8.58894 11.3653Z" fill="white"/>
</svg>
